<svg viewBox="-82.537 -122.385 165.073 186.235" xmlns="http://www.w3.org/2000/svg" style="width:171.956px;height:194px;max-height:100%"><g fill="#FFFFFF"><path d="M-39.003-40.413c.066-.2.033-.416-.1-.65a.444.444 0 0 1-.05-.2c0-.066.066-.15.2-.25.066 0 .1-.05.1-.15l.1-.2-.1-.1c-.034-.133-.075-.175-.125-.125-.05.05-.109-.025-.175-.225-.067-.033-.134-.15-.2-.35a.33.33 0 0 1-.3-.05l-.45-.3a.888.888 0 0 1-.4-.1c-.034-.033-.034-.15 0-.35.066-.066.183-.133.35-.2a3.269 3.269 0 0 1-.35-.2c-.1-.066-.217-.15-.35-.25-.3.067-.634.1-1 .1-.367 0-.734-.016-1.1-.05a4.685 4.685 0 0 0-.825-.025c-.25.017-.542.025-.875.025-.1 0-.192-.008-.275-.025-.084-.016-.192.009-.325.075-.067 0-.384.025-.95.075-.567.05-1.284.125-2.15.225-.867.1-1.825.209-2.875.325-1.05.117-2.075.234-3.075.35a169 169 0 0 1-2.75.3 90.3 90.3 0 0 1-1.9.175c-.567.034-1.125.1-1.675.2s-1.075.184-1.575.25c-.9.167-1.767.317-2.6.45-.834.134-1.684.234-2.55.3a3.624 3.624 0 0 1-1.25.3c-.467.034-.884.084-1.25.15-.7.134-1.434.25-2.2.35-.767.1-1.534.284-2.3.55-.5.167-1 .242-1.5.225-.5-.016-.934.075-1.3.275-.4.2-.734.475-1 .825-.267.35-.367.775-.3 1.275 0 .167-.034.225-.1.175-.067-.05-.084-.008-.05.125.033.034.05.092.05.175 0 .084.016.159.05.225.066.234.133.459.2.675.066.217.116.409.15.575.133.167.333.325.6.475.266.15.433.275.5.375.266.167.541.284.825.35.283.067.558.067.825 0 .2-.033.516-.15.95-.35.433-.2.75-.3.95-.3.266-.066.575-.166.925-.3.35-.133.658-.183.925-.15.266-.033.391-.075.375-.125-.017-.05.075-.091.275-.125.733-.2 1.533-.35 2.4-.45.233 0 .433-.1.6-.3.066 0 .133-.033.2-.1a1.248 1.248 0 0 1-.275.425 2.196 2.196 0 0 0-.275.325 1.025 1.025 0 0 0-.225.575.892.892 0 0 1-.275.575c-.167.167-.342.517-.525 1.05a29.1 29.1 0 0 1-.475 1.3c-.167.367-.384.867-.65 1.5-.267.634-.559 1.317-.875 2.05-.317.734-.634 1.484-.95 2.25-.317.767-.609 1.467-.875 2.1-.267.634-.492 1.15-.675 1.55-.184.4-.292.6-.325.6-.067.034-.184.25-.35.65l-.55 1.325-.55 1.325c-.167.4-.267.617-.3.65-.134.3-.317.7-.55 1.2l-.725 1.55a148.06 148.06 0 0 1-1.275 2.65c-.1.367-.192.65-.275.85a5.23 5.23 0 0 1-.25.525c-.084.15-.175.317-.275.5-.1.184-.217.425-.35.725l-.825 1.75c-.284.6-.492 1.2-.625 1.8-.234.467-.492.934-.775 1.4a4.447 4.447 0 0 0-.575 1.5.348.348 0 0 1-.025.15c-.017.034-.009.1.025.2.066.067.075.142.025.225a.525.525 0 0 0-.075.275 1.437 1.437 0 0 0-.025.475c.016.184.025.359.025.525.066.167.175.342.325.525.15.184.225.342.225.475.166.167.366.267.6.3.1.067.233.134.4.2.166.067.316.167.45.3.133.1.283.134.45.1.166-.033.3-.083.4-.15.233-.066.458-.116.675-.15.216-.033.375-.183.475-.45.1-.033.183-.1.25-.2l.2-.3c.233-.333.416-.7.55-1.1.233-.5.416-1.016.55-1.55l2.2-4.85c.2-.533.491-1.2.875-2 .383-.8.783-1.608 1.2-2.425.416-.816.816-1.616 1.2-2.4.383-.783.708-1.441.975-1.975.066-.166.191-.425.375-.775.183-.35.341-.508.475-.475.566-.133 1.025-.241 1.375-.325.35-.083.683-.15 1-.2.316-.05.666-.1 1.05-.15.383-.05.908-.125 1.575-.225.233-.066.483-.108.75-.125.266-.016.433-.008.5.025h.5c.166 0 .35-.016.55-.05.133 0 .241-.066.325-.2.083-.133.191-.2.325-.2.233-.033.516-.033.85 0l-.1-.15.95-.25v-.225c0-.05.05-.091.15-.125.066-.066.133-.1.2-.1a1.503 1.503 0 0 1-.05-.25c0-.1.016-.166.05-.2a.696.696 0 0 1-.3-.05l.15-.25c.066-.133.158-.15.275-.05.116.1.108.084-.025-.05 0-.033.008-.1.025-.2.016-.1.008-.166-.025-.2-.067-.1-.117-.141-.15-.125-.034.017-.084.009-.15-.025 0-.033.033-.05.1-.05h.25c.1 0 .183-.008.25-.025.066-.016.083-.025.05-.025v-.35c-.167-.166-.25-.266-.25-.3 0-.033-.034-.2-.1-.5-.034-.033-.134-.05-.3-.05-.067 0-.167-.016-.3-.05-.034-.233.041-.316.225-.25.183.067.308.034.375-.1-.034-.066-.159-.108-.375-.125-.217-.016-.375-.058-.475-.125-.2-.133-.484-.216-.85-.25a5.866 5.866 0 0 0-1.2.025c-.434.05-.875.117-1.325.2-.45.084-.875.142-1.275.175-.267.067-.559.1-.875.1-.317 0-.692.067-1.125.2a.85.85 0 0 1-.425.075 3.067 3.067 0 0 0-.425-.025.222.222 0 0 0-.1.025.348.348 0 0 1-.15.025c.133-.3.316-.683.55-1.15.233-.466.383-.8.45-1 .2-.433.425-.941.675-1.525.25-.583.458-1.041.625-1.375.066-.133.158-.325.275-.575.116-.25.233-.516.35-.8.116-.283.225-.558.325-.825a6.7 6.7 0 0 1 .25-.6 3.43 3.43 0 0 1 .25-.375c.133-.183.266-.391.4-.625a84.4 84.4 0 0 1 .375-.65c.116-.2.175-.35.175-.45-.034 0 .016-.066.15-.2.066-.066.058-.133-.025-.2-.084-.066-.109-.15-.075-.25.2-.166.341-.408.425-.725.083-.316.075-.558-.025-.725.033-.033.016-.1-.05-.2a.492.492 0 0 1-.125-.175 1.903 1.903 0 0 0-.425-.675c-.067 0-.142-.008-.225-.025a.767.767 0 0 0-.325.025c.3-.033.758-.1 1.375-.2.616-.1 1.25-.191 1.9-.275.65-.083 1.233-.15 1.75-.2.516-.05.808-.058.875-.025 0-.033.016-.05.05-.05.033 0 .066-.016.1-.05.033-.066.183-.091.45-.075.266.017.433-.008.5-.075.566-.066 1.1-.133 1.6-.2.5-.066 1.066-.1 1.7-.1.9-.1 1.941-.208 3.125-.325 1.183-.116 2.3-.216 3.35-.3a48.395 48.395 0 0 1 2.725-.15c.766-.016 1.183.025 1.25.125.433.067.85.067 1.25 0 .4-.066.833-.066 1.3 0a.822.822 0 0 0 .2-.025c.066-.016.1-.058.1-.125a.444.444 0 0 0-.05-.2c.133-.1.241-.166.325-.2a2.98 2.98 0 0 0 .225-.1c0-.233.058-.366.175-.4.116-.033.308-.05.575-.05a1.314 1.314 0 0 0-.125-.2 1.314 1.314 0 0 1-.125-.2c.066-.166.15-.225.25-.175.1.05.2.109.3.175Zm-28.55 3.9h-.1l.15-.15c.033.034.083.05.15.05l-.05.05c0 .034-.05.05-.15.05Z"/><path d="M-54.203-16.063h.1c.166.067.325.192.475.375.15.184.325.292.525.325.066.067.091.109.075.125-.017.017.008.025.075.025.066 0 .116.009.15.025a.222.222 0 0 0 .1.025c.633.067 1.141.059 1.525-.025a3.46 3.46 0 0 0 1.125-.475c1.7-1.166 3.025-2.458 3.975-3.875.95-1.416 1.791-3.075 2.525-4.975 0-.133.066-.266.2-.4.1-.466.166-.883.2-1.25.033-.366 0-.75-.1-1.15a3.339 3.339 0 0 0-.85-1.95 1.295 1.295 0 0 0-.65-.55c-.234-.266-.609-.433-1.125-.5a6.187 6.187 0 0 0-1.325-.05 10.9 10.9 0 0 0-3.8 1.7 16.482 16.482 0 0 0-3.125 2.9 24.993 24.993 0 0 0-2.575 3.725 46.53 46.53 0 0 0-2.1 4.175l-.7 2.5c-.067.2-.117.425-.15.675-.034.25-.084.475-.15.675a7.03 7.03 0 0 0-.15.775c-.034.25-.067.509-.1.775 0 .434-.034.734-.1.9-.034.434-.034.85 0 1.25.033.4.116.8.25 1.2.066.1.108.225.125.375.016.15.058.292.125.425.166.367.366.717.6 1.05.233.334.483.617.75.85.266.267.6.492 1 .675.4.184.8.309 1.2.375.266.067.7.117 1.3.15.6.034 1.016.05 1.25.05 1.5-.066 3.016-.508 4.55-1.325a24.406 24.406 0 0 0 4.425-3.05 36.046 36.046 0 0 0 3.975-4 52.914 52.914 0 0 0 3.2-4.125c.333-.433.633-.983.9-1.65.033-.1.016-.15-.05-.15-.067 0-.1-.016-.1-.05l1-2.15a.348.348 0 0 1-.15-.025l-.15-.075c.066-.1.083-.191.05-.275a2.98 2.98 0 0 0-.1-.225l-.1-.1c-.034-.033-.05-.066-.05-.1-.067-.3-.217-.416-.45-.35-.234.067-.384.134-.45.2-.067-.066-.117-.1-.15-.1a.564.564 0 0 1-.4-.05c-.067-.066-.125-.075-.175-.025a.667.667 0 0 0-.125.175.892.892 0 0 0-.075.225c-.017.084-.025.109-.025.075-.2-.033-.342-.008-.425.075a4.789 4.789 0 0 0-.325.375c-.1.134-.234.317-.4.55-.167.234-.342.467-.525.7a83.34 83.34 0 0 0-.525.675 5.19 5.19 0 0 1-.4.475c-.434.5-.934 1.1-1.5 1.8-.567.7-1.175 1.409-1.825 2.125a59.494 59.494 0 0 1-2 2.1 15.304 15.304 0 0 1-2.025 1.725c-1.4.967-2.8 1.734-4.2 2.3a3.24 3.24 0 0 1-.875.1h-.825c-.267-.033-.55-.1-.85-.2-.3-.1-.484-.283-.55-.55a4.4 4.4 0 0 1-.2-1.3c0-.666.125-1.441.375-2.325.25-.883.541-1.675.875-2.375Zm1.3-3.3c0-.066.008-.15.025-.25.016-.1.025-.116.025-.05a.534.534 0 0 1 0-.325.734.734 0 0 0 .05-.275c.066-.066.125-.191.175-.375.05-.183.125-.308.225-.375.3-.4.508-.7.625-.9.116-.2.241-.391.375-.575.133-.183.316-.425.55-.725.233-.3.633-.75 1.2-1.35.266-.3.5-.525.7-.675.2-.15.483-.341.85-.575.233-.1.408-.133.525-.1.116.034.2.117.25.25.05.134.075.267.075.4 0 .134-.017.25-.05.35-.134.2-.225.4-.275.6-.05.2-.159.434-.325.7a37.355 37.355 0 0 1-1.8 2.65 5.333 5.333 0 0 1-2.55 1.9h-.15a.348.348 0 0 0-.15.025.222.222 0 0 1-.1.025c-.067-.1-.109-.15-.125-.15-.017 0-.034.009-.05.025-.017.017-.025.017-.025 0a2.07 2.07 0 0 0-.05-.225Zm15.85-3.15h.05c-.034.067-.05.067-.05 0Z"/><path d="M-36.853-16.063h.1c.166.067.325.192.475.375.15.184.325.292.525.325.066.067.091.109.075.125-.017.017.008.025.075.025.066 0 .116.009.15.025a.222.222 0 0 0 .1.025c.633.067 1.141.059 1.525-.025a3.46 3.46 0 0 0 1.125-.475c1.7-1.166 3.025-2.458 3.975-3.875.95-1.416 1.791-3.075 2.525-4.975 0-.133.066-.266.2-.4.1-.466.166-.883.2-1.25.033-.366 0-.75-.1-1.15a3.339 3.339 0 0 0-.85-1.95 1.295 1.295 0 0 0-.65-.55c-.234-.266-.609-.433-1.125-.5a6.187 6.187 0 0 0-1.325-.05 10.9 10.9 0 0 0-3.8 1.7 16.482 16.482 0 0 0-3.125 2.9 24.993 24.993 0 0 0-2.575 3.725 46.53 46.53 0 0 0-2.1 4.175l-.7 2.5c-.067.2-.117.425-.15.675-.034.25-.084.475-.15.675a7.03 7.03 0 0 0-.15.775c-.034.25-.067.509-.1.775 0 .434-.034.734-.1.9-.034.434-.034.85 0 1.25.033.4.116.8.25 1.2.066.1.108.225.125.375.016.15.058.292.125.425.166.367.366.717.6 1.05.233.334.483.617.75.85.266.267.6.492 1 .675.4.184.8.309 1.2.375.266.067.7.117 1.3.15.6.034 1.016.05 1.25.05 1.5-.066 3.016-.508 4.55-1.325a24.406 24.406 0 0 0 4.425-3.05 36.046 36.046 0 0 0 3.975-4 52.914 52.914 0 0 0 3.2-4.125c.333-.433.633-.983.9-1.65.033-.1.016-.15-.05-.15-.067 0-.1-.016-.1-.05l1-2.15a.348.348 0 0 1-.15-.025l-.15-.075c.066-.1.083-.191.05-.275a2.98 2.98 0 0 0-.1-.225l-.1-.1c-.034-.033-.05-.066-.05-.1-.067-.3-.217-.416-.45-.35-.234.067-.384.134-.45.2-.067-.066-.117-.1-.15-.1a.564.564 0 0 1-.4-.05c-.067-.066-.125-.075-.175-.025a.667.667 0 0 0-.125.175.892.892 0 0 0-.075.225c-.017.084-.025.109-.025.075-.2-.033-.342-.008-.425.075a4.789 4.789 0 0 0-.325.375c-.1.134-.234.317-.4.55-.167.234-.342.467-.525.7a83.34 83.34 0 0 0-.525.675 5.19 5.19 0 0 1-.4.475c-.434.5-.934 1.1-1.5 1.8-.567.7-1.175 1.409-1.825 2.125a59.494 59.494 0 0 1-2 2.1 15.304 15.304 0 0 1-2.025 1.725c-1.4.967-2.8 1.734-4.2 2.3a3.24 3.24 0 0 1-.875.1h-.825c-.267-.033-.55-.1-.85-.2-.3-.1-.484-.283-.55-.55a4.4 4.4 0 0 1-.2-1.3c0-.666.125-1.441.375-2.325.25-.883.541-1.675.875-2.375Zm1.3-3.3c0-.066.008-.15.025-.25.016-.1.025-.116.025-.05a.534.534 0 0 1 0-.325.734.734 0 0 0 .05-.275c.066-.066.125-.191.175-.375.05-.183.125-.308.225-.375.3-.4.508-.7.625-.9.116-.2.241-.391.375-.575.133-.183.316-.425.55-.725.233-.3.633-.75 1.2-1.35.266-.3.5-.525.7-.675.2-.15.483-.341.85-.575.233-.1.408-.133.525-.1.116.034.2.117.25.25.05.134.075.267.075.4 0 .134-.017.25-.05.35-.134.2-.225.4-.275.6-.05.2-.159.434-.325.7a37.355 37.355 0 0 1-1.8 2.65 5.333 5.333 0 0 1-2.55 1.9h-.15a.348.348 0 0 0-.15.025.222.222 0 0 1-.1.025c-.067-.1-.109-.15-.125-.15-.017 0-.034.009-.05.025-.017.017-.025.017-.025 0a2.07 2.07 0 0 0-.05-.225Zm15.85-3.15h.05c-.034.067-.05.067-.05 0Z"/><path d="M4.047-19.263c.066-.1.158-.225.275-.375.116-.15.191-.308.225-.475-.1 0-.167.017-.2.05 0-.133.008-.25.025-.35.016-.1.025-.216.025-.35a1.163 1.163 0 0 1-.3.2 2.195 2.195 0 0 1-.15-.375 1.154 1.154 0 0 0-.15-.325l-.25-.4c0-.033-.017-.066-.05-.1l-.45.15c-.067.034-.067.067 0 .1.066.034.066.05 0 .05-.1 0-.25.067-.45.2a3.88 3.88 0 0 1-.2-.5l-.6.9a1.372 1.372 0 0 0-.075.175c-.017.05-.075.042-.175-.025-.1-.1-.15-.083-.15.05-.167.134-.3.275-.4.425l-.35.525c-.1.267-.234.484-.4.65-.2.334-.492.817-.875 1.45a61.505 61.505 0 0 1-2.575 3.9c-.434.6-.784 1.034-1.05 1.3-.367.4-.725.75-1.075 1.05-.35.3-.759.567-1.225.8a1.785 1.785 0 0 1-.45.15 1.022 1.022 0 0 1-.45 0c-.334-.1-.517-.316-.55-.65a.98.98 0 0 1-.075-.475c.016-.15.025-.308.025-.475 0-.333.05-.791.15-1.375.1-.583.216-1.183.35-1.8.133-.616.266-1.208.4-1.775.133-.566.233-1.016.3-1.35.1-.366.2-.75.3-1.15.1-.4.216-.783.35-1.15.1-.466.208-.866.325-1.2l.325-.925c.1-.283.2-.55.3-.8.1-.25.183-.525.25-.825.1-.266.208-.525.325-.775.116-.25.225-.508.325-.775.266-.733.55-1.45.85-2.15.3-.7.6-1.416.9-2.15.2-.466.408-.933.625-1.4.216-.466.425-.95.625-1.45.1-.233.175-.391.225-.475.05-.083.083-.15.1-.2l.075-.225c.033-.1.1-.283.2-.55.066-.266.166-.5.3-.7.133-.2.233-.433.3-.7.133-.333.283-.666.45-1 .166-.333.283-.683.35-1.05.066-.233.191-.441.375-.625.183-.183.308-.375.375-.575.066-.266.2-.525.4-.775s.216-.525.05-.825v-.1c.066-.166.016-.408-.15-.725-.167-.316-.25-.558-.25-.725a3.496 3.496 0 0 1-.375-.325 2.196 2.196 0 0 1-.275-.325c-.134-.233-.267-.35-.4-.35-.134 0-.334-.016-.6-.05a.66.66 0 0 0-.4.025c-.134.05-.25.042-.35-.025-.167-.066-.3-.066-.4 0-.1.067-.184.134-.25.2-.267.267-.517.509-.75.725-.234.217-.384.509-.45.875-.067.1-.117.192-.15.275a.504.504 0 0 1-.2.225.91.91 0 0 0-.325.475c-.05.184-.109.359-.175.525-.167.267-.325.542-.475.825-.15.284-.259.559-.325.825-.3.634-.55 1.175-.75 1.625-.2.45-.392.875-.575 1.275-.184.4-.375.825-.575 1.275-.2.45-.434 1.009-.7 1.675-.234.567-.534 1.25-.9 2.05-.367.8-.684 1.484-.95 2.05 0 .034-.017.059-.05.075-.034.017-.05.042-.05.075a1.697 1.697 0 0 1-.35-.575c-.1-.25-.2-.458-.3-.625a3.67 3.67 0 0 0-1.4-1.1c-.067 0-.109-.008-.125-.025-.017-.016-.059-.025-.125-.025-.3-.033-.592-.075-.875-.125a1.763 1.763 0 0 0-.875.075c-.267.067-.542.134-.825.2a3.771 3.771 0 0 0-.825.3c-.6.334-1.175.692-1.725 1.075a7.64 7.64 0 0 0-1.525 1.425c-.467.567-.925 1.134-1.375 1.7-.45.567-.875 1.167-1.275 1.8l-1.45 2.45a17.894 17.894 0 0 0-1.15 2.6c-.267.6-.509 1.209-.725 1.825a21.632 21.632 0 0 0-.575 1.925 23.33 23.33 0 0 0-.325 1.625 62.874 62.874 0 0 1-.275 1.575l-.1.8v.8c0 .267.016.534.05.8.033.467.116.909.25 1.325.133.417.283.825.45 1.225.2.3.383.534.55.7.166.167.35.384.55.65.066.067.15.109.25.125.1.017.183.042.25.075l.5.15c.466.1 1.016.125 1.65.075.633-.05 1.133-.208 1.5-.475.366-.166.725-.341 1.075-.525.35-.183.675-.391.975-.625.433-.333.841-.675 1.225-1.025.383-.35.758-.708 1.125-1.075.533-.466 1.008-.95 1.425-1.45.416-.5.808-1.033 1.175-1.6.033-.033.05-.058.05-.075 0-.016.033-.058.1-.125-.134 1.2-.134 2.267 0 3.2.133.934.383 1.617.75 2.05.466.7 1 1.184 1.6 1.45a4.487 4.487 0 0 0 1.875.375 5.768 5.768 0 0 0 1.775-.325c.833-.333 1.508-.733 2.025-1.2a96.331 96.331 0 0 0 1.825-1.7c.333-.4.75-.941 1.25-1.625a74.507 74.507 0 0 0 3-4.45c.466-.75.85-1.375 1.15-1.875.233-.266.4-.583.5-.95a2.5 2.5 0 0 1 .25-.35c.133-.166.183-.283.15-.35a.409.409 0 0 1-.075-.3.888.888 0 0 1 .075-.25c.066-.133.058-.216-.025-.25-.084-.033-.092-.116-.025-.25Zm-15.05-3.3c-.534 1.034-1 2.025-1.4 2.975-.4.95-.867 1.759-1.4 2.425a.63.63 0 0 0-.25.375c-.034.15-.084.292-.15.425-.267.4-.65.917-1.15 1.55-.5.634-.934 1.167-1.3 1.6-1.3 1.367-2.242 2.125-2.825 2.275-.584.15-.934-.041-1.05-.575-.117-.533-.067-1.258.15-2.175.216-.916.458-1.775.725-2.575.1-.266.241-.6.425-1 .183-.4.375-.8.575-1.2.2-.4.391-.791.575-1.175.183-.383.341-.708.475-.975.066-.233.208-.5.425-.8.216-.3.458-.608.725-.925.266-.316.525-.616.775-.9.25-.283.458-.508.625-.675 0-.133.066-.241.2-.325.133-.083.266-.191.4-.325.4-.233.791-.466 1.175-.7.383-.233.725-.358 1.025-.375.3-.016.558.125.775.425.216.3.341.834.375 1.6.033.167.041.342.025.525a1.12 1.12 0 0 0 .075.525Z"/><path d="M8.547-39.863c-.234.2-.384.4-.45.6-.067.2-.117.384-.15.55-.034.167-.134.342-.3.525a1.796 1.796 0 0 0-.35.525 3.44 3.44 0 0 1-.2.425 3.44 3.44 0 0 0-.2.425l-.5 1.5c-.167.5-.367.984-.6 1.45-.167.434-.317.809-.45 1.125-.134.317-.259.634-.375.95-.117.317-.242.642-.375.975-.134.334-.267.717-.4 1.15-.134.3-.234.534-.3.7a3.44 3.44 0 0 1-.2.425 3.44 3.44 0 0 0-.2.425c-.067.167-.167.4-.3.7a52.797 52.797 0 0 1-1.25 3 34.835 34.835 0 0 1-.875 2.175 14.716 14.716 0 0 1-1.125 2.075l-.1.3-.5 1.65c-.1.167-.242.417-.425.75-.184.334-.259.584-.225.75-.267.567-.384.959-.35 1.175.033.217.05.425.05.625 0 .067.025.159.075.275.05.117.041.209-.025.275a5.203 5.203 0 0 0-.3 1.35c-.034.434-.067.934-.1 1.5-.067.967.033 1.95.3 2.95.066.3.158.6.275.9.116.3.291.55.525.75.433.534 1.05.9 1.85 1.1.133.034.225.05.275.05.05 0 .125.034.225.1.566.167 1.091.225 1.575.175.483-.05.991-.108 1.525-.175.5-.166 1.008-.383 1.525-.65.516-.266 1.008-.55 1.475-.85.6-.4 1.166-.825 1.7-1.275.533-.45 1.05-.908 1.55-1.375 1.5-1.4 2.733-2.925 3.7-4.575.966-1.65 1.766-3.475 2.4-5.475a8.69 8.69 0 0 0 .325-1.125c.083-.383.125-.791.125-1.225l.1-1.8a6.957 6.957 0 0 0-.3-2.6c-.267-.866-.784-1.566-1.55-2.1-.434-.3-.784-.508-1.05-.625a6.42 6.42 0 0 0-1-.325h-.4c-.534 0-1.034.067-1.5.2-.467.134-.917.3-1.35.5-.234.067-.525.259-.875.575-.35.317-.609.525-.775.625-.034 0-.109.05-.225.15-.117.1-.192.117-.225.05.033-.066.091-.2.175-.4.083-.2.175-.408.275-.625.1-.216.191-.425.275-.625.083-.2.141-.333.175-.4.1-.333.2-.591.3-.775.1-.183.183-.358.25-.525.066-.166.15-.341.25-.525.1-.183.2-.458.3-.825.033-.066.083-.158.15-.275.066-.116.133-.208.2-.275.133-.366.225-.6.275-.7.05-.1.141-.35.275-.75.066-.233.175-.466.325-.7a1.78 1.78 0 0 0 .275-.75c.066-.466.233-.941.5-1.425.266-.483.416-.991.45-1.525 0-.266-.034-.483-.1-.65a1.567 1.567 0 0 1-.4-.3.885.885 0 0 1-.25-.4c-.034.067-.075.1-.125.1a.17.17 0 0 0-.125.05c0-.2-.067-.35-.2-.45-.1-.233-.3-.316-.6-.25l-.9.25c-.034-.2-.117-.316-.25-.35-.3 0-.467.117-.5.35-.067.267-.217.45-.45.55-.067.067-.15.034-.25-.1Zm4.7 16.55c0 .267-.034.534-.1.8a6.746 6.746 0 0 0-.15.8c-.1.434-.209.834-.325 1.2a4.719 4.719 0 0 1-.525 1.1c-.5 1.167-1.1 2.275-1.8 3.325-.7 1.05-1.5 2.009-2.4 2.875-.467.434-.942.867-1.425 1.3a6.927 6.927 0 0 1-1.525 1.05c-.367.134-.7.234-1 .3-.3.067-.634.05-1-.05-.367-.066-.55-.233-.55-.5a.744.744 0 0 0-.1-.375c-.067-.116-.067-.258 0-.425.066-.9.3-1.716.7-2.45.033-.133.083-.2.15-.2.266-.2.441-.425.525-.675a4.95 4.95 0 0 1 .375-.825c.133-.2.241-.408.325-.625.083-.216.158-.425.225-.625.066-.233.175-.441.325-.625.15-.183.258-.358.325-.525.233-.5.483-.933.75-1.3.133-.166.266-.325.4-.475.133-.15.266-.308.4-.475.566-.966 1.25-1.775 2.05-2.425a15.97 15.97 0 0 1 2.5-1.675 5.19 5.19 0 0 0 .65-.2c.366-.033.7.167 1 .6.066.167.141.35.225.55.083.2.075.384-.025.55ZM33.697-28.963l-.6 1.2v-.05a7.268 7.268 0 0 1-.425-.775 1.665 1.665 0 0 0-.5-.625c-.217-.166-.517-.291-.9-.375-.384-.083-.909-.108-1.575-.075a.773.773 0 0 0-.35.075c-.1.05-.2.092-.3.125-.834.2-1.609.517-2.325.95-.717.434-1.392.942-2.025 1.525a21.981 21.981 0 0 0-1.825 1.9 82.49 82.49 0 0 0-1.675 2.025c-.067.1-.167.242-.3.425-.134.184-.275.375-.425.575-.15.2-.292.392-.425.575-.134.184-.217.325-.25.425-.4.667-.867 1.375-1.4 2.125-.534.75-.967 1.525-1.3 2.325-.1.3-.225.609-.375.925a6.2 6.2 0 0 0-.375 1.025c0 .167-.067.334-.2.5a1.177 1.177 0 0 0-.25.5 2.848 2.848 0 0 0-.425 1.425 7.477 7.477 0 0 1-.225 1.575c-.067.2-.1.384-.1.55a.992.992 0 0 1-.1.45c-.034.567.008 1.034.125 1.4.116.367.258.8.425 1.3 0 .034.008.05.025.05.016 0 .025.017.025.05.466.867 1.116 1.45 1.95 1.75.833.3 1.9.217 3.2-.25.366-.166.783-.375 1.25-.625.466-.25.883-.558 1.25-.925.066-.1.166-.2.3-.3.133-.1.25-.216.35-.35l1.45-1.45c.5-.5.983-1.05 1.45-1.65a1.87 1.87 0 0 0 .325-.25c.15-.133.258-.266.325-.4-.067.334-.1.592-.1.775v.625c.033.534.066.967.1 1.3.033.334.133.717.3 1.15.2.467.466.85.8 1.15.6.467 1.275.725 2.025.775.75.05 1.516-.058 2.3-.325a8.552 8.552 0 0 0 2.25-1.175 9.868 9.868 0 0 0 1.825-1.675.711.711 0 0 1 .15-.125c.033-.016.066-.058.1-.125a9.686 9.686 0 0 0 1.275-1.45c.383-.533.758-1.083 1.125-1.65.233-.3.583-.8 1.05-1.5.466-.7.95-1.45 1.45-2.25s.966-1.558 1.4-2.275c.433-.716.716-1.241.85-1.575.066-.266.133-.516.2-.75l.2-.7v-.15c0-.066.016-.116.05-.15-.1.034-.167.075-.2.125a.82.82 0 0 1-.1.125l.1-.9-.1.2c-.134-.166-.209-.325-.225-.475a1.828 1.828 0 0 0-.125-.475v-.05l-.1.1v-.1c-.134.167-.192.217-.175.15.016-.066-.025-.05-.125.05a.711.711 0 0 1-.125-.15.392.392 0 0 0-.075-.1c-.034-.033-.059 0-.075.1-.017.1-.059.134-.125.1 0-.066.008-.116.025-.15.016-.033.041-.1.075-.2-.034.034-.067.034-.1 0-.034-.033-.067-.016-.1.05-.134.067-.184.142-.15.225.033.084-.017.159-.15.225 0 .1-.034.134-.1.1a.444.444 0 0 0-.2-.05c-.167.034-.375.134-.625.3-.25.167-.409.3-.475.4a2.792 2.792 0 0 1-.225.375 2.577 2.577 0 0 1-.275.325c-.067 0-.092.042-.075.125a.34.34 0 0 1-.025.225c-.134.1-.284.242-.45.425a1.796 1.796 0 0 0-.35.525c-.167.267-.45.742-.85 1.425-.4.684-.85 1.425-1.35 2.225-.5.8-1.009 1.575-1.525 2.325-.517.75-.942 1.309-1.275 1.675a8.866 8.866 0 0 1-1.225 1.275c-.45.384-.859.642-1.225.775a5.949 5.949 0 0 1-.5.175c-.167.05-.35.059-.55.025-.367-.133-.55-.433-.55-.9-.034-.933.016-1.691.15-2.275.133-.583.283-1.191.45-1.825.366-1.1.708-2 1.025-2.7.316-.7.658-1.516 1.025-2.45.266-.633.566-1.291.9-1.975a46.55 46.55 0 0 1 1.05-2.025c.1-.2.233-.45.4-.75.166-.3.325-.608.475-.925.15-.316.283-.641.4-.975.116-.333.175-.616.175-.85.166-.233.25-.433.25-.6.1-.266.091-.483-.025-.65a2.943 2.943 0 0 1-.325-.65c-.034-.066-.084-.083-.15-.05-.067.034-.117-.016-.15-.15a.34.34 0 0 0-.25.1c-.067.067-.117.034-.15-.1-.067-.2-.15-.3-.25-.3a6.33 6.33 0 0 1-.4-.075c-.067-.016-.234.009-.5.075-.267.1-.55.2-.85.3-.3.1-.534.334-.7.7Zm-3.3 3.5c.2-.066.35.059.45.375.1.317.183.642.25.975l-.25.7c.066.134.016.275-.15.425-.167.15-.284.325-.35.525a.686.686 0 0 1-.225.4c-.117.1-.175.25-.175.45-.067.1-.1.159-.1.175 0 .017-.017.092-.05.225-.4.967-.95 1.9-1.65 2.8a70 70 0 0 1-1.275 2.025 19.95 19.95 0 0 1-1.275 1.725c-.3.434-.592.784-.875 1.05-.284.267-.592.6-.925 1-1.134 1.3-1.984 1.992-2.55 2.075-.567.084-.9-.158-1-.725-.1-.566-.017-1.308.25-2.225a7.952 7.952 0 0 1 1.25-2.525c.133-.2.241-.366.325-.5.083-.133.158-.258.225-.375.066-.116.133-.241.2-.375.066-.133.183-.316.35-.55.566-.833 1.183-1.708 1.85-2.625.666-.916 1.3-1.675 1.9-2.275.3-.4.533-.675.7-.825a8.27 8.27 0 0 1 .75-.575c.1-.133.133-.2.1-.2-.034 0 .066-.016.3-.05.066-.033.15-.116.25-.25.1-.133.183-.2.25-.2l.35-.175c.1-.05.2-.108.3-.175.133-.033.25-.1.35-.2.133-.066.183-.075.15-.025-.034.05.016.042.15-.025h.05c.033 0 .066-.016.1-.05Zm13.8 2.6v.05c0-.033.008-.066.025-.1l-.025.05Z"/><path d="M51.447-26.313c-.034.067-.025.15.025.25s.025.184-.075.25a3.98 3.98 0 0 1-.275.625 3.98 3.98 0 0 0-.275.625c-.234.434-.392.725-.475.875-.084.15-.259.442-.525.875-.067.134-.1.184-.1.15v-.275c0-.016-.034.042-.1.175l-.175.35a.423.423 0 0 1-.175.2c-.2.167-.4.442-.6.825-.2.384-.334.675-.4.875.033.067.025.15-.025.25a.38.38 0 0 0-.025.3c-.067.367-.042.692.075.975.116.284.225.542.325.775.033.067.075.092.125.075.05-.016.108.009.175.075.1.234.3.35.6.35s.55-.033.75-.1c.2 0 .433-.05.7-.15a.666.666 0 0 0 .15-.225.316.316 0 0 1 .15-.175c.433-.1.733-.316.9-.65l.75-1.3a1.5 1.5 0 0 0 .325-.325c.083-.116.175-.241.275-.375l.325-.65a11.605 11.605 0 0 0 .425-.95c.066-.166.183-.4.35-.7.2-.466.383-.916.55-1.35.166-.433.283-.9.35-1.4.133-.833.141-1.6.025-2.3-.117-.7-.3-1.291-.55-1.775-.25-.483-.525-.85-.825-1.1-.3-.25-.567-.341-.8-.275l-.2-.1c-.067-.033-.184-.05-.35-.05-.534 0-1.159.067-1.875.2-.717.134-1.309.367-1.775.7-.334.2-.675.425-1.025.675-.35.25-.692.525-1.025.825a2.758 2.758 0 0 0-.725.675 4.748 4.748 0 0 1-.675.725c-.467.434-.884.884-1.25 1.35-.367.467-.75.95-1.15 1.45-.467.634-.9 1.284-1.3 1.95-.4.667-.784 1.35-1.15 2.05-.267.467-.484.909-.65 1.325-.167.417-.384.875-.65 1.375-.467 1.3-.767 2.475-.9 3.525a34.44 34.44 0 0 0-.25 3.375c.033.667.091 1.25.175 1.75.083.5.216.95.4 1.35.183.4.433.775.75 1.125.316.35.741.692 1.275 1.025.5.267 1.141.442 1.925.525a13.05 13.05 0 0 0 2.425.025 10.896 10.896 0 0 0 2.375-.45c.75-.233 1.358-.516 1.825-.85a7.527 7.527 0 0 0 1.05-.65c.366-.266.733-.516 1.1-.75.3-.233.691-.516 1.175-.85.483-.333.983-.7 1.5-1.1.516-.4 1.008-.808 1.475-1.225.466-.416.85-.808 1.15-1.175.166-.133.308-.258.425-.375.116-.116.258-.241.425-.375.8-.8 1.575-1.708 2.325-2.725.75-1.016 1.375-1.858 1.875-2.525.066-.1.1-.241.1-.425v-.525a3.12 3.12 0 0 1 .45-1.25c.066-.166.1-.333.1-.5v-.4a.52.52 0 0 0-.2.025.348.348 0 0 1-.15.025c0-.133-.017-.25-.05-.35a.554.554 0 0 1-.175-.025c-.05-.016-.059-.041-.025-.075a.936.936 0 0 0 .05-.525 2.937 2.937 0 0 1-.05-.525l-.15.2-.2.1c-.1.1-.184.1-.25 0-.034-.066-.075-.05-.125.05s-.125.134-.225.1v-.275c0-.016.066-.058.2-.125 0-.133-.017-.216-.05-.25-.167.067-.267.142-.3.225a1.533 1.533 0 0 1-.15.275c-.1.267-.225.45-.375.55-.15.1-.359.317-.625.65-.1.167-.209.342-.325.525a5.972 5.972 0 0 1-.375.525c-.234.3-.534.659-.9 1.075-.367.417-.759.842-1.175 1.275-.417.434-.817.859-1.2 1.275-.384.417-.709.742-.975.975-.267.3-.634.65-1.1 1.05-.467.4-.959.8-1.475 1.2-.517.4-1.025.784-1.525 1.15-.5.367-.9.667-1.2.9-.567.334-1.009.6-1.325.8-.317.2-.775.4-1.375.6-.567.2-1.067.317-1.5.35a5.17 5.17 0 0 1-1.25-.05c-.4-.166-.65-.366-.75-.6-.1-.233-.234-.55-.4-.95-.034-.033-.042-.125-.025-.275.016-.15.025-.241.025-.275-.2-1.666.166-3.55 1.1-5.65l.5-1.1.5-1.1c.233-.333.425-.633.575-.9.15-.266.308-.5.475-.7l2-2.45c.2-.166.383-.35.55-.55.166-.2.35-.333.55-.4.166-.233.408-.441.725-.625.316-.183.641-.375.975-.575.033-.066.066-.1.1-.1.033 0 .15.017.35.05Z"/><path d="m71.797-16.513-4.5-.1-.6 1.5a10.62 10.62 0 0 0-.325 1.05c-.084.334-.192.65-.325.95-.1.267-.184.525-.25.775-.067.25-.134.509-.2.775l4.15 2.25c-.167-.266-.225-.583-.175-.95.05-.366.141-.733.275-1.1.133-.4.316-.816.55-1.25.166-.366.341-.8.525-1.3.183-.5.375-.933.575-1.3.066-.2.191-.466.375-.8.183-.333.383-.675.6-1.025.216-.35.425-.683.625-1 .2-.316.35-.575.45-.775.333-.533.641-.95.925-1.25.283-.3.458-.633.525-1a6.1 6.1 0 0 1 .25-.625c.1-.216.1-.441 0-.675l-.1-.7c-.067-.433-.2-.741-.4-.925-.2-.183-.467-.408-.8-.675a.675.675 0 0 0-.65-.15 1.25 1.25 0 0 1-.7 0c-.067-.033-.225-.041-.475-.025a10.026 10.026 0 0 0-2.175.425c-.434.134-.867.3-1.3.5l2.85-2.35c.2-.2.366-.35.5-.45.133-.1.258-.2.375-.3.116-.1.25-.2.4-.3.15-.1.325-.25.525-.45.366-.366.75-.708 1.15-1.025.4-.316.8-.641 1.2-.975l1-.8c.6-.533.933-1.266 1-2.2a1.18 1.18 0 0 0-.075-.625 3.699 3.699 0 0 0-.275-.575 3.536 3.536 0 0 0-.5-.575 1.494 1.494 0 0 0-.65-.325c-.067-.066-.167-.1-.3-.1-.167 0-.284.017-.35.05-.067.034-.217.067-.45.1-.1.034-.2.084-.3.15l-.3.2c-.234.1-.459.267-.675.5a9.747 9.747 0 0 1-.725.7.645.645 0 0 1-.225.275c-.084.05-.159.109-.225.175-.234.2-.4.359-.5.475a5.37 5.37 0 0 1-.275.3 4.106 4.106 0 0 0-.25.275c-.084.1-.225.25-.425.45-.3.267-.684.65-1.15 1.15-.467.5-.95 1.009-1.45 1.525l-1.45 1.5c-.467.484-.834.859-1.1 1.125-.034.167-.167.3-.4.4l-.05-.1.4-.9c.066-.2.216-.525.45-.975.233-.45.475-.925.725-1.425l.725-1.45.5-1c.133-.333.258-.666.375-1 .116-.333.258-.633.425-.9l1.95-4.45c.433-.733.666-1.483.7-2.25a5.827 5.827 0 0 0-.025-1.225c-.05-.35-.275-.725-.675-1.125-.534-.633-1.217-.85-2.05-.65-.4.067-.767.184-1.1.35-.334.3-.65.834-.95 1.6a.615.615 0 0 1-.1.275 6.022 6.022 0 0 0-.15.275 17.55 17.55 0 0 1-.675 1.8c-.25.567-.509 1.167-.775 1.8-.134.4-.3.809-.5 1.225-.2.417-.384.859-.55 1.325a76.727 76.727 0 0 0-.775 1.7c-.25.567-.459 1.134-.625 1.7a66.063 66.063 0 0 0-2.3 5.6 30.08 30.08 0 0 0-.95 2.55 15.18 15.18 0 0 1-1 2.4c-.1.234-.167.45-.2.65-.034.2-.134.4-.3.6-.134.1-.2.267-.2.5a.71.71 0 0 1-.1.4l-.2.3c-.267.667-.517 1.3-.75 1.9-.234.6-.484 1.217-.75 1.85a58.992 58.992 0 0 0-1.1 2.8c-.3.834-.667 1.784-1.1 2.85-.067.2-.134.409-.2.625a14.15 14.15 0 0 0-.2.725c-.067.234-.084.417-.05.55.1.567.333 1 .7 1.3.233.3.483.5.75.6.133.2.383.267.75.2.2 0 .5-.05.9-.15.4-.1.683-.2.85-.3l.05-.05c.133-.2.241-.375.325-.525.083-.15.158-.325.225-.525.033-.133.091-.266.175-.4.083-.133.158-.266.225-.4 0-.166.033-.316.1-.45.166-.2.266-.391.3-.575a2.72 2.72 0 0 1 .15-.525c.266-.6.516-1.133.75-1.6.233-.466.458-.933.675-1.4.216-.466.441-.95.675-1.45.233-.5.466-1.05.7-1.65.1-.266.208-.5.325-.7.116-.2.258-.366.425-.5a1.77 1.77 0 0 0 .25-.375c.1-.183.183-.308.25-.375.033-.033.175-.191.425-.475.25-.283.391-.458.425-.525.3-.266.608-.541.925-.825.316-.283.575-.508.775-.675l.75-.5c.2-.133.391-.25.575-.35.183-.1.375-.2.575-.3.2-.1.483-.2.85-.3.6-.2.866-.141.8.175a4.56 4.56 0 0 1-.4 1.075l-.95 1.8-.45.85-.1.25a9.7 9.7 0 0 0-.5 1.25 15.05 15.05 0 0 0-.675 1.825 32 32 0 0 1-.525 1.625l.1.1c-.2.967-.284 1.867-.25 2.7-.034.267-.025.517.025.75.05.234.108.484.175.75.266.634.533 1.142.8 1.525.266.384.666.759 1.2 1.125.1 0 .15.017.15.05.433.167.833.267 1.2.3.366.034.816.017 1.35-.05.566-.066 1.025-.175 1.375-.325.35-.15.758-.375 1.225-.675.3-.133.566-.291.8-.475.233-.183.483-.375.75-.575.566-.4 1.191-.966 1.875-1.7a61.916 61.916 0 0 0 1.875-2.1c.266-.266.483-.5.65-.7.166-.2.3-.391.4-.575a23.037 23.037 0 0 1 .75-1.275c.133-.166.358-.433.675-.8.316-.366.508-.65.575-.85l.75-1.35c.133-.233.241-.458.325-.675.083-.216.158-.458.225-.725.066-.133.05-.266-.05-.4a1.126 1.126 0 0 1-.2-.4.876.876 0 0 1-.05-.275c0-.083-.034-.141-.1-.175-.1-.066-.142-.083-.125-.05.016.034-.009-.033-.075-.2a.44.44 0 0 1-.175-.175c-.05-.083-.109-.125-.175-.125-.034-.033-.117-.033-.25 0-.134.034-.284.075-.45.125-.167.05-.325.092-.475.125-.15.034-.242.034-.275 0-.034 0-.05.017-.05.05 0 .034-.017.05-.05.05a.327.327 0 0 0-.15.15.327.327 0 0 1-.15.15c-.2.234-.334.342-.4.325-.067-.016-.184.092-.35.325-.267.3-.509.55-.725.75-.217.2-.442.5-.675.9-.2.3-.542.742-1.025 1.325-.484.584-.909 1.092-1.275 1.525a41.795 41.795 0 0 1-1.575 1.675c-.484.484-.925.859-1.325 1.125-.867.667-1.517.9-1.95.7-.167.067-.275.025-.325-.125a1.754 1.754 0 0 1-.075-.55c0-.216.025-.458.075-.725.05-.266.075-.5.075-.7.2-.566.391-1.183.575-1.85.183-.666.408-1.283.675-1.85Z"/></g><g fill="#FFFFFF"><path d="M-39.247 12.9v.45l-.4.25c0-.033-.083.2-.25.7 0 .1-.1.25-.3.45a11.33 11.33 0 0 1-.475 1.675c-.183.483-.375.908-.575 1.275l-.25.45-.25.65-.3.5c-.067.3-.092.458-.075.475.017.017-.008.058-.075.125l-.1.25c-.067.167-.15.358-.25.575-.1.217-.217.442-.35.675-.167.6-.417 1.108-.75 1.525a3.21 3.21 0 0 0-.65 1.475l-.25.85h.05l-.9 1.55c-.1.2-.258.508-.475.925l-.675 1.3c-.233.45-.475.875-.725 1.275-.25.4-.442.717-.575.95-.2.3-.4.608-.6.925-.2.317-.417.625-.65.925l-.8 1.35c-.1.1-.183.2-.25.3-.067.1-.183.183-.35.25-.267.6-.533 1.025-.8 1.275s-.533.592-.8 1.025a5.949 5.949 0 0 1-.875.8c-.35.267-.625.533-.825.8l-.4.4-.15.05c0 .167-.058.258-.175.275a.92.92 0 0 0-.275.075c-.633.4-1.108.6-1.425.6-.317 0-.458-.275-.425-.825.033-.55.242-1.417.625-2.6s.958-2.742 1.725-4.675l2.7-6.25.4-1.1.55-1.35.4-.8.3-.4.35-1.2a114.39 114.39 0 0 0 1.35-3.4 2.85 2.85 0 0 1 .15-.5c.067-.167.1-.333.1-.5.067-.133.158-.342.275-.625.117-.283.192-.508.225-.675.267-.667.517-1.4.75-2.2.233-.8.367-1.6.4-2.4.067-.5.05-1.017-.05-1.55a6.851 6.851 0 0 0-.55-1.65c0 .067-.067-.067-.2-.4v-.15c-.633-.733-1.3-1.15-2-1.25-.033 0-.05-.017-.05-.05-.033-.033-.05-.067-.05-.1h-.25c-.033 0-.067-.025-.1-.075-.033-.05-.067-.075-.1-.075a2.305 2.305 0 0 0-.625-.1c-.183 0-.375-.033-.575-.1a14.317 14.317 0 0 0-1.875.025c-.683.05-1.258.142-1.725.275h.05c-.7.167-1.467.367-2.3.6-.833.233-1.633.55-2.4.95a71.15 71.15 0 0 1-2.675 1.55c-.85.467-1.608.983-2.275 1.55l-.95.85c-.467.467-.892.875-1.275 1.225-.383.35-.792.708-1.225 1.075-.1.2-.25.392-.45.575-.2.183-.4.342-.6.475l-1.2 1.75-.3.35c-.4.667-.75 1.3-1.05 1.9-.3.6-.533 1.117-.7 1.55-.233.367-.442.85-.625 1.45s-.325 1.133-.425 1.6a3.37 3.37 0 0 0-.3 1.075c-.033.35-.05.725-.05 1.125-.1.6-.067 1.083.1 1.45.067.167.133.325.2.475.067.15.117.325.15.525l-.1-.05c.133.467.35.85.65 1.15.3.3.667.567 1.1.8.467.333.917.558 1.35.675.433.117.85.142 1.25.075a19.243 19.243 0 0 1 1.55-.125c.467-.017.9-.108 1.3-.275l.2-.15.15.05.7-.3c.033.033.067.05.1.05h.05l.3-.15c.067-.067.183-.158.35-.275.167-.117.333-.208.5-.275l.6-.3c.4-.267.775-.483 1.125-.65.35-.167.608-.367.775-.6h-.05c.4-.367.683-.708.85-1.025.167-.317.183-.808.05-1.475a3.39 3.39 0 0 0-.275-.9 1.516 1.516 0 0 0-.575-.6 9.804 9.804 0 0 0-.875-.475c-.25-.117-.558-.175-.925-.175a3.806 3.806 0 0 0-1.1.275 1.67 1.67 0 0 0-.85.775c-.167.2-.342.342-.525.425a5.208 5.208 0 0 0-.525.275l-.35.3a2.5 2.5 0 0 1-.35.25 1.372 1.372 0 0 1-.175.075c-.05.017-.125.033-.225.05s-.3.075-.6.175a.615.615 0 0 1-.275-.1.615.615 0 0 0-.275-.1c-.067 0-.1.067-.1.2 0-.233-.017-.458-.05-.675a1.659 1.659 0 0 1 0-.575 4.816 4.816 0 0 1 .55-2.05l.15-.45v-.2a8.95 8.95 0 0 1 .6-1.1c.233-.367.533-.783.9-1.25a25.984 25.984 0 0 1 2.25-2.725 21.761 21.761 0 0 1 2.55-2.325 46.946 46.946 0 0 1 2.425-1.575c.85-.517 1.708-.958 2.575-1.325.3-.167.55-.267.75-.3.2-.033.533-.117 1-.25.267 0 .575-.025.925-.075.35-.05.642-.042.875.025h.2c.133.067.317.258.55.575.233.317.317.542.25.675.033.267 0 .65-.1 1.15-.1.5-.333 1.183-.7 2.05a.573.573 0 0 1-.05.175.573.573 0 0 0-.05.175l-.05.1a86.095 86.095 0 0 1-1.05 2.9c-.333.867-.733 1.883-1.2 3.05h.05l-.6 1.25c-.133.3-.258.558-.375.775a3.118 3.118 0 0 0-.275.725l-.15.3c0 .033-.008.058-.025.075-.017.017-.025.042-.025.075l.05-.1-1.65 3.45-.55 1.25-.6 1.45v.2c-.067.167-.125.317-.175.45-.05.133-.108.283-.175.45l-.65 1.2a9.52 9.52 0 0 1-.375 1.1c-.15.367-.292.717-.425 1.05l-1 2.2-.35 1a25.977 25.977 0 0 0-.625 1.675c-.183.55-.308 1.192-.375 1.925l.1 1.35c-.033.433.017.858.15 1.275.133.417.317.858.55 1.325l.25.45c.433.5.883.858 1.35 1.075.467.217.933.342 1.4.375.233.033.467.058.7.075a1.35 1.35 0 0 0 .6-.075c.233-.1.608-.208 1.125-.325.517-.117.908-.292 1.175-.525l2.35-1.85.7-.7 1.1-1.25c.133-.267.292-.442.475-.525.183-.083.358-.258.525-.525l3.35-3.75c0-.033.008-.083.025-.15.017-.067.058-.1.125-.1V38c0 .067.017.117.05.15.1.533.15 1.2.15 2s.083 1.417.25 1.85c.133.6.267 1.108.4 1.525.133.417.333.808.6 1.175.367.433.717.717 1.05.85.267.167.525.317.775.45s.525.233.825.3l.35.15c.1-.067.217-.067.35 0h.1c.1 0 .283-.017.55-.05.267-.033.467-.05.6-.05.5-.033.883-.117 1.15-.25.267-.133.617-.333 1.05-.6.867-.467 1.55-.967 2.05-1.5.5-.533.983-1.033 1.45-1.5.6-.633 1.208-1.383 1.825-2.25a32.522 32.522 0 0 0 1.675-2.6l.9-1.55.75-1.65.2.05.15-.55.1-.35v.05c.567-.967 1.1-1.983 1.6-3.05.5-1.067.983-2.183 1.45-3.35l.95-2.05.95-2.1c.1-.167.167-.35.2-.55.033-.2.083-.383.15-.55v.1a176.97 176.97 0 0 1 2.175-5.475c.783-1.883 1.575-3.558 2.375-5.025.167-.333.392-.758.675-1.275.283-.517.492-.958.625-1.325.033-.033.05-.183.05-.45l.25-.4c.1-.033.15-.1.15-.2.033-.033.042-.092.025-.175a.238.238 0 0 1 .075-.225c0-.033-.033-.05-.1-.05a.822.822 0 0 1-.2-.025.775.775 0 0 1-.15-.05c-.033-.017-.017-.058.05-.125l-.25-.55a5.645 5.645 0 0 0-.625-.7c-.183-.167-.408-.2-.675-.1l-.05.05-.7-.05-.35.35-.15-.45c-.167.067-.392.208-.675.425-.283.217-.442.358-.475.425a79.6 79.6 0 0 1-1.175 1.9c-.383.6-.758 1.283-1.125 2.05-.2.5-.467 1.092-.8 1.775a152.33 152.33 0 0 0-1.05 2.2 72.222 72.222 0 0 0-1.1 2.475 41.58 41.58 0 0 0-1 2.6c-.1.367-.2.692-.3.975-.1.283-.217.525-.35.725l-.1.3c0 .067-.05.225-.15.475-.1.25-.167.425-.2.525l-.2.4c-.2.467-.4.917-.6 1.35-.2.433-.4.833-.6 1.2l-.35.9h.05l-.5 1.15v-.05l-.5.9c-.067.233-.2.483-.4.75-.167.267-.35.6-.55 1-.2.4-.4.833-.6 1.3v-.05c-.267.467-.492.933-.675 1.4a5.592 5.592 0 0 1-.825 1.4c-.2.333-.392.658-.575.975a5.626 5.626 0 0 1-.525.775l-1.2 1.6a2.008 2.008 0 0 1-.3.425c-.133.15-.233.258-.3.325l-.2.15c-.167.167-.35.358-.55.575-.2.217-.367.375-.5.475l-.1.15-.75.3c-.167.133-.275.183-.325.15-.05-.033-.175-.017-.375.05h-.05a.931.931 0 0 1-.5-.475 2.015 2.015 0 0 1-.175-.725 12.822 12.822 0 0 1-.025-.8V37.025c0-.083.017-.192.05-.325l.2-1.75c.033-.1.067-.217.1-.35.033-.1.058-.208.075-.325a.777.777 0 0 1 .125-.325l-.1.05c.1-.133.167-.275.2-.425.033-.15.05-.275.05-.375.167-.8.367-1.583.6-2.35.233-.767.483-1.533.75-2.3l.4-1.45.6-1.4c.067-.2.15-.417.25-.65.1-.233.183-.433.25-.6v.05l1.25-3.1c.2-.5.408-1 .625-1.5.217-.5.408-.983.575-1.45 0-.067.008-.133.025-.2a.822.822 0 0 0 .025-.2l.15-.6v.05l.25-.6c.1-.167.217-.4.35-.7.133-.3.167-.717.1-1.25a5.562 5.562 0 0 0-.25-.95c-.1-.267-.183-.5-.25-.7l-.65-.65-.2-.1a1.173 1.173 0 0 0-.525-.25 2.72 2.72 0 0 1-.525-.15l-.5.25c0 .067-.05.1-.15.1-.267 0-.492.05-.675.15-.183.1-.375.183-.575.25ZM-17.397 21.85c-.267.067-.442.1-.525.1h-.475c-.067 0-.15.008-.25.025a.77.77 0 0 0-.3.125c-.1.167-.167.267-.2.3l-.3.3a1.567 1.567 0 0 0-.3.4c-.4.533-.775 1.117-1.125 1.75s-.758 1.533-1.225 2.7l-.85 1.9c-.167.367-.275.617-.325.75-.05.133-.083.242-.1.325a2.311 2.311 0 0 1-.075.275 3.33 3.33 0 0 1-.25.5 1.622 1.622 0 0 0-.3.75c-.033.267-.1.533-.2.8-.1.3-.175.483-.225.55-.05.067-.092.125-.125.175-.033.05-.075.133-.125.25a12.9 12.9 0 0 0-.275.775c-.2.7-.4 1.525-.6 2.475-.2.95-.258 1.867-.175 2.75.083.883.383 1.633.9 2.25s1.375.942 2.575.975a6.268 6.268 0 0 0 2.2-.3 10.724 10.724 0 0 0 2.1-.925 18.02 18.02 0 0 0 1.95-1.3 62.032 62.032 0 0 0 1.8-1.425c.333-.367.575-.642.725-.825.15-.183.283-.35.4-.5.117-.15.267-.333.45-.55.183-.217.492-.558.925-1.025.2-.2.417-.458.65-.775.233-.317.467-.65.7-1 .233-.35.458-.675.675-.975.217-.3.392-.533.525-.7.133-.2.317-.492.55-.875.233-.383.475-.792.725-1.225.25-.433.483-.842.7-1.225.217-.383.375-.675.475-.875.067-.167.133-.35.2-.55l.2-.6c-.067-.067-.083-.125-.05-.175.033-.05.017-.142-.05-.275 0-.133.017-.225.05-.275a.968.968 0 0 0 .1-.275c-.2.067-.283.125-.25.175.033.05-.033.108-.2.175 0-.133-.017-.25-.05-.35l.2-.75h-.05c-.033 0-.05-.033-.05-.1-.133.1-.25.25-.35.45-.3-.033-.467-.117-.5-.25-.033-.133-.117-.133-.25 0-.1-.1-.175-.183-.225-.25-.05-.067-.158-.083-.325-.05-.067-.033-.208.067-.425.3-.217.233-.358.383-.425.45l-.25.25c-.033.033 0 .05.1.05s.083.033-.05.1c-.067.033-.117.033-.15 0-.1.133-.125.25-.075.35.05.1-.042.217-.275.35a4.946 4.946 0 0 1-.375.575c-.117.15-.208.308-.275.475-.267.3-.6.725-1 1.275-.4.55-.808 1.117-1.225 1.7a35.475 35.475 0 0 1-1.25 1.65c-.417.517-.742.892-.975 1.125a53.466 53.466 0 0 1-1.95 1.95c-.767.733-1.467 1.3-2.1 1.7-.267.1-.417.183-.45.25-.033.067-.183.167-.45.3-.367.133-.642.117-.825-.05-.183-.167-.242-.417-.175-.75.167-1 .483-1.992.95-2.975.467-.983.975-1.983 1.525-3a69.456 69.456 0 0 0 1.6-3.15A16.205 16.205 0 0 0-15.647 25c.033-.267.083-.533.15-.8.067-.267.05-.533-.05-.8a8.484 8.484 0 0 0-.325-.5 2.483 2.483 0 0 1-.275-.5c-.1-.167-.217-.25-.35-.25a3.546 3.546 0 0 1-.45-.15 3.546 3.546 0 0 0-.45-.15Zm1.65-.8c.3.067.583.033.85-.1s.533-.233.8-.3a4.95 4.95 0 0 0 .625-.525c.183-.183.308-.408.375-.675 0-.1.017-.192.05-.275a2.98 2.98 0 0 1 .1-.225c.067-.433-.042-.95-.325-1.55-.283-.6-.708-.967-1.275-1.1a4.24 4.24 0 0 0-1.15.05c-.333.067-.683.15-1.05.25a.543.543 0 0 0-.2.1c-.033.033-.083.05-.15.05-.2.167-.383.325-.55.475-.167.15-.283.308-.35.475-.167.233-.25.467-.25.7.033.2.05.408.05.625 0 .217.033.442.1.675.067.233.192.458.375.675.183.217.408.358.675.425.233.167.442.258.625.275.183.017.408.008.675-.025Z"/><path d="M16.103 29.15c.067-.1.158-.225.275-.375.117-.15.192-.308.225-.475-.1 0-.167.017-.2.05 0-.133.008-.25.025-.35.017-.1.025-.217.025-.35a1.163 1.163 0 0 1-.3.2 2.195 2.195 0 0 1-.15-.375 1.154 1.154 0 0 0-.15-.325l-.25-.4c0-.033-.017-.067-.05-.1l-.45.15c-.067.033-.067.067 0 .1s.067.05 0 .05c-.1 0-.25.067-.45.2a3.88 3.88 0 0 1-.2-.5l-.6.9a1.372 1.372 0 0 0-.075.175c-.017.05-.075.042-.175-.025-.1-.1-.15-.083-.15.05-.167.133-.3.275-.4.425l-.35.525c-.1.267-.233.483-.4.65l-.875 1.45a61.505 61.505 0 0 1-2.575 3.9c-.433.6-.783 1.033-1.05 1.3-.367.4-.725.75-1.075 1.05-.35.3-.758.567-1.225.8a1.785 1.785 0 0 1-.45.15 1.022 1.022 0 0 1-.45 0c-.333-.1-.517-.317-.55-.65a.98.98 0 0 1-.075-.475c.017-.15.025-.308.025-.475 0-.333.05-.792.15-1.375.1-.583.217-1.183.35-1.8.133-.617.267-1.208.4-1.775s.233-1.017.3-1.35c.1-.367.2-.75.3-1.15.1-.4.217-.783.35-1.15.1-.467.208-.867.325-1.2l.325-.925c.1-.283.2-.55.3-.8.1-.25.183-.525.25-.825.1-.267.208-.525.325-.775.117-.25.225-.508.325-.775.267-.733.55-1.45.85-2.15.3-.7.6-1.417.9-2.15.2-.467.408-.933.625-1.4.217-.467.425-.95.625-1.45.1-.233.175-.392.225-.475.05-.083.083-.15.1-.2l.075-.225c.033-.1.1-.283.2-.55.067-.267.167-.5.3-.7.133-.2.233-.433.3-.7.133-.333.283-.667.45-1 .167-.333.283-.683.35-1.05.067-.233.192-.442.375-.625s.308-.375.375-.575c.067-.267.2-.525.4-.775s.217-.525.05-.825v-.1c.067-.167.017-.408-.15-.725-.167-.317-.25-.558-.25-.725a3.496 3.496 0 0 1-.375-.325 2.196 2.196 0 0 1-.275-.325c-.133-.233-.267-.35-.4-.35s-.333-.017-.6-.05a.66.66 0 0 0-.4.025c-.133.05-.25.042-.35-.025-.167-.067-.3-.067-.4 0-.1.067-.183.133-.25.2-.267.267-.517.508-.75.725-.233.217-.383.508-.45.875-.067.1-.117.192-.15.275a.504.504 0 0 1-.2.225.91.91 0 0 0-.325.475c-.05.183-.108.358-.175.525-.167.267-.325.542-.475.825-.15.283-.258.558-.325.825-.3.633-.55 1.175-.75 1.625-.2.45-.392.875-.575 1.275-.183.4-.375.825-.575 1.275-.2.45-.433 1.008-.7 1.675-.233.567-.533 1.25-.9 2.05-.367.8-.683 1.483-.95 2.05 0 .033-.017.058-.05.075-.033.017-.05.042-.05.075a1.697 1.697 0 0 1-.35-.575c-.1-.25-.2-.458-.3-.625a3.67 3.67 0 0 0-1.4-1.1c-.067 0-.108-.008-.125-.025S.82 17.75.753 17.75c-.3-.033-.592-.075-.875-.125a1.763 1.763 0 0 0-.875.075c-.267.067-.542.133-.825.2a3.771 3.771 0 0 0-.825.3c-.6.333-1.175.692-1.725 1.075A7.64 7.64 0 0 0-5.897 20.7c-.467.567-.925 1.133-1.375 1.7-.45.567-.875 1.167-1.275 1.8l-1.45 2.45a17.894 17.894 0 0 0-1.15 2.6c-.267.6-.508 1.208-.725 1.825A21.632 21.632 0 0 0-12.447 33a23.33 23.33 0 0 0-.325 1.625 62.874 62.874 0 0 1-.275 1.575l-.1.8v.8c0 .267.017.533.05.8.033.467.117.908.25 1.325.133.417.283.825.45 1.225.2.3.383.533.55.7.167.167.35.383.55.65.067.067.15.108.25.125s.183.042.25.075l.5.15c.467.1 1.017.125 1.65.075s1.133-.208 1.5-.475c.367-.167.725-.342 1.075-.525s.675-.392.975-.625c.433-.333.842-.675 1.225-1.025.383-.35.758-.708 1.125-1.075.533-.467 1.008-.95 1.425-1.45.417-.5.808-1.033 1.175-1.6.033-.033.05-.058.05-.075 0-.017.033-.058.1-.125-.133 1.2-.133 2.267 0 3.2.133.933.383 1.617.75 2.05.467.7 1 1.183 1.6 1.45a4.487 4.487 0 0 0 1.875.375 5.768 5.768 0 0 0 1.775-.325c.833-.333 1.508-.733 2.025-1.2a96.331 96.331 0 0 0 1.825-1.7c.333-.4.75-.942 1.25-1.625s1.008-1.408 1.525-2.175a74.507 74.507 0 0 0 1.475-2.275c.467-.75.85-1.375 1.15-1.875.233-.267.4-.583.5-.95a2.5 2.5 0 0 1 .25-.35c.133-.167.183-.283.15-.35a.409.409 0 0 1-.075-.3.888.888 0 0 1 .075-.25c.067-.133.058-.217-.025-.25s-.092-.117-.025-.25Zm-15.05-3.3c-.533 1.033-1 2.025-1.4 2.975-.4.95-.867 1.758-1.4 2.425a.63.63 0 0 0-.25.375c-.033.15-.083.292-.15.425-.267.4-.65.917-1.15 1.55-.5.633-.933 1.167-1.3 1.6-1.3 1.367-2.242 2.125-2.825 2.275-.583.15-.933-.042-1.05-.575-.117-.533-.067-1.258.15-2.175.217-.917.458-1.775.725-2.575.1-.267.242-.6.425-1s.375-.8.575-1.2c.2-.4.392-.792.575-1.175.183-.383.342-.708.475-.975.067-.233.208-.5.425-.8.217-.3.458-.608.725-.925.267-.317.525-.617.775-.9.25-.283.458-.508.625-.675 0-.133.067-.242.2-.325.133-.083.267-.192.4-.325.4-.233.792-.467 1.175-.7.383-.233.725-.358 1.025-.375.3-.017.558.125.775.425.217.3.342.833.375 1.6.033.167.042.342.025.525a1.12 1.12 0 0 0 .075.525Z"/><path d="m33.553 44.05-6.75.5c-.467.067-.933.125-1.4.175-.467.05-.933.108-1.4.175l.05-.1c-.067 0-.067-.133 0-.4l.15-.6c.267-.8.542-1.642.825-2.525.283-.883.458-1.492.525-1.825.1-.533.233-1.042.4-1.525.167-.483.333-.958.5-1.425l.4-1.3a13.8 13.8 0 0 1 .45-1.25c.233-.5.425-1.025.575-1.575.15-.55.325-1.075.525-1.575.133-.4.267-.783.4-1.15.133-.367.283-.733.45-1.1.3-.567.542-1.183.725-1.85.183-.667.375-1.35.575-2.05-.067-.067-.067-.125 0-.175.067-.05.1-.108.1-.175 0-.267.05-.5.15-.7.1-.2.15-.433.15-.7a.372.372 0 0 0 .1-.275.624.624 0 0 0-.05-.275c0-.067-.033-.192-.1-.375a17.725 17.725 0 0 0-.2-.525c-.267-.133-.425-.292-.475-.475-.05-.183-.192-.375-.425-.575a1.663 1.663 0 0 0-.65-.075 2.39 2.39 0 0 1-.75-.075h-.1c0 .2-.067.292-.2.275-.133-.017-.217.058-.25.225-.167.167-.258.233-.275.2-.017-.033-.108-.083-.275-.15-.033.1-.1.308-.2.625s-.225.65-.375 1-.292.675-.425.975c-.133.3-.233.5-.3.6 0-.133-.033-.325-.1-.575-.067-.25-.142-.517-.225-.8a5.502 5.502 0 0 0-.275-.75c-.1-.217-.217-.358-.35-.425-.067-.1-.158-.242-.275-.425a1.294 1.294 0 0 0-.425-.425l-.75-.375a2.565 2.565 0 0 0-.425-.175 1.677 1.677 0 0 0-.45-.05H21.403a13.58 13.58 0 0 0-3.05 1.275 9.041 9.041 0 0 0-2.55 2.175c-.933.867-1.683 1.75-2.25 2.65-.567.9-1.183 1.95-1.85 3.15-.167.3-.308.617-.425.95a6.63 6.63 0 0 0-.275 1.1c-.133.3-.275.625-.425.975-.15.35-.258.708-.325 1.075-.067.4-.175.833-.325 1.3-.15.467-.258.933-.325 1.4-.033.467-.075 1.092-.125 1.875-.05.783-.008 1.425.125 1.925.067.367.183.658.35.875.167.217.333.458.5.725a.783.783 0 0 1 .15.2.327.327 0 0 0 .15.15c.167.233.308.383.425.45.117.067.233.117.35.15.117.033.258.058.425.075.167.017.383.092.65.225.033 0 .05.008.05.025s.033.025.1.025c.3 0 .625.008.975.025s.675-.008.975-.075c.6-.167 1.075-.308 1.425-.425a6.79 6.79 0 0 0 .875-.35c.233-.117.442-.242.625-.375s.392-.283.625-.45c.433-.3.867-.633 1.3-1a18.26 18.26 0 0 1 1.45-1.1.582.582 0 0 0 .1-.15.327.327 0 0 1 .15-.15 1.239 1.239 0 0 0-.125.375.777.777 0 0 1-.125.325c-.067.2-.142.392-.225.575a2.425 2.425 0 0 0-.175.525 9.999 9.999 0 0 1-.225.825c-.117.383-.258.808-.425 1.275 0 .033-.008.058-.025.075-.017.017-.025.042-.025.075l-.3.85c-.033.133-.067.25-.1.35l-.1.3h.05a5.96 5.96 0 0 1-.2.45 5.96 5.96 0 0 0-.2.45c0 .067-.017.117-.05.15a.582.582 0 0 0-.1.15l-.1.15c-.267.067-.467.1-.6.1l-.2.05c-.4.067-.8.125-1.2.175-.4.05-.8.108-1.2.175a.888.888 0 0 1-.25.075c-.1.017-.217.058-.35.125l-.6.1c-.267.067-.5.108-.7.125-.2.017-.417.042-.65.075-.133.067-.217.1-.25.1l-1.55.2-1.35.3c-.4.067-.808.158-1.225.275-.417.117-.842.225-1.275.325a7.445 7.445 0 0 0-1 .275c-.333.117-.65.208-.95.275-.3.1-.6.192-.9.275-.3.083-.6.192-.9.325l-1.8.7c-.367.2-.725.4-1.075.6-.35.2-.708.433-1.075.7a8.899 8.899 0 0 0-1.7 1.65c-.333.4-.642.833-.925 1.3a6.51 6.51 0 0 0-.675 1.55c-.2.567-.3 1.183-.3 1.85.033 1 .233 1.9.6 2.7.133.467.4.9.8 1.3.2.333.433.6.7.8.267.2.567.417.9.65.4.3.783.483 1.15.55.533.3 1.117.45 1.75.45.167 0 .392.017.675.05.283.033.575.05.875.05h.85c.267 0 .5-.017.7-.05a.973.973 0 0 1 .375-.025c.117.017.258.008.425-.025.267-.067.508-.125.725-.175a8.09 8.09 0 0 1 .675-.125c.133 0 .233-.033.3-.1l.4-.2c.267-.1.5-.208.7-.325.2-.117.4-.208.6-.275.2-.067.383-.083.55-.05.033 0 .067-.017.1-.05a.582.582 0 0 1 .15-.1c0-.133.067-.167.2-.1 0 .033.033.017.1-.05l1-.5a32.554 32.554 0 0 0 1.725-1.2 26.92 26.92 0 0 0 1.675-1.35l1.55-1.55a5.37 5.37 0 0 1 .575-.675c.217-.217.408-.458.575-.725.3-.367.608-.733.925-1.1a9.24 9.24 0 0 0 .875-1.2c.467-.7.892-1.325 1.275-1.875.383-.55.742-1.158 1.075-1.825.067-.133.158-.325.275-.575.117-.25.242-.392.375-.425l.05-.2a26.428 26.428 0 0 1 2.45-.3c.7-.067 1.4-.142 2.1-.225.7-.083 1.4-.158 2.1-.225l3.8-.2c.267 0 .525-.008.775-.025s.508-.008.775.025c.233.067.517.058.85-.025.333-.083.583-.125.75-.125l.05-.05a1.503 1.503 0 0 1-.05-.25c0-.033.033-.1.1-.2 0-.067.033-.092.1-.075s.117-.008.15-.075c0-.167.017-.283.05-.35a.645.645 0 0 1 .225-.275c.083-.05.158-.108.225-.175a.696.696 0 0 1-.05-.3.34.34 0 0 1-.025-.225c.017-.083.025-.158.025-.225-.033-.033-.058-.108-.075-.225a.47.47 0 0 0-.125-.275c-.367-.467-.817-.758-1.35-.875a17.029 17.029 0 0 0-1.65-.275Zm-17.1 6.3-.9 1.4c-.233.3-.483.608-.75.925a9.539 9.539 0 0 0-.75 1.025 7.626 7.626 0 0 1-1.125 1.175c-.383.317-.775.658-1.175 1.025-.167.1-.308.192-.425.275a2.222 2.222 0 0 0-.275.225 2.049 2.049 0 0 0-.525.325c-.183.15-.375.258-.575.325a2.16 2.16 0 0 0-.6.375 1.55 1.55 0 0 1-.55.325l-1.35.7a1.19 1.19 0 0 0-.325.075c-.15.05-.317.108-.5.175-.183.067-.35.133-.5.2-.15.067-.242.117-.275.15-.433.1-.833.183-1.2.25a3.33 3.33 0 0 1-1.15 0c-.433 0-.967-.133-1.6-.4-.5-.133-.85-.55-1.05-1.25-.2-.667-.133-1.233.2-1.7.067-.167.142-.292.225-.375l.275-.275.65-.7.45-.4.35-.25c.333-.133.808-.367 1.425-.7.617-.333 1.108-.55 1.475-.65.433-.167.867-.317 1.3-.45a9.145 9.145 0 0 1 1.3-.3l1.1-.3c.367-.1.733-.183 1.1-.25l1.95-.35 1.1-.25a6.736 6.736 0 0 1 1.1-.15c.467-.033.8-.083 1-.15a.83.83 0 0 0 .325-.075c.117-.05.208-.042.275.025Zm-2.2-13.15c0-.467.083-1.067.25-1.8.167-.733.35-1.367.55-1.9.167-.4.292-.708.375-.925.083-.217.167-.4.25-.55.083-.15.158-.3.225-.45a3.53 3.53 0 0 1 .35-.575c.267-.567.6-1.225 1-1.975s.917-1.408 1.55-1.975c.333-.4.617-.717.85-.95.233-.233.45-.433.65-.6.2-.167.408-.3.625-.4.217-.1.492-.2.825-.3.2-.067.367-.067.5 0s.283.1.45.1c.167.067.358.158.575.275.217.117.358.375.425.775.033.167.075.35.125.55.05.2.075.417.075.65 0 .333-.117.758-.35 1.275-.233.517-.383.892-.45 1.125l-.7 1.4c-.2.4-.392.775-.575 1.125-.183.35-.4.692-.65 1.025-.25.333-.558.7-.925 1.1-.333.333-.792.825-1.375 1.475a13.311 13.311 0 0 1-1.825 1.7c-.633.483-1.208.767-1.725.85-.517.083-.875-.258-1.075-1.025Z"/><path d="M36.253 32.35h.1c.167.067.325.192.475.375.15.183.325.292.525.325.067.067.092.108.075.125s.008.025.075.025.117.008.15.025a.222.222 0 0 0 .1.025c.633.067 1.142.058 1.525-.025a3.46 3.46 0 0 0 1.125-.475c1.7-1.167 3.025-2.458 3.975-3.875.95-1.417 1.792-3.075 2.525-4.975 0-.133.067-.267.2-.4.1-.467.167-.883.2-1.25s0-.75-.1-1.15a3.339 3.339 0 0 0-.85-1.95 1.295 1.295 0 0 0-.65-.55c-.233-.267-.608-.433-1.125-.5a6.187 6.187 0 0 0-1.325-.05 10.9 10.9 0 0 0-3.8 1.7 16.482 16.482 0 0 0-3.125 2.9 24.993 24.993 0 0 0-2.575 3.725 46.53 46.53 0 0 0-2.1 4.175l-.7 2.5c-.067.2-.117.425-.15.675-.033.25-.083.475-.15.675a7.03 7.03 0 0 0-.15.775c-.033.25-.067.508-.1.775 0 .433-.033.733-.1.9-.033.433-.033.85 0 1.25s.117.8.25 1.2c.067.1.108.225.125.375s.058.292.125.425c.167.367.367.717.6 1.05.233.333.483.617.75.85.267.267.6.492 1 .675.4.183.8.308 1.2.375.267.067.7.117 1.3.15.6.033 1.017.05 1.25.05 1.5-.067 3.017-.508 4.55-1.325a24.406 24.406 0 0 0 4.425-3.05 36.046 36.046 0 0 0 3.975-4 52.914 52.914 0 0 0 3.2-4.125c.333-.433.633-.983.9-1.65.033-.1.017-.15-.05-.15s-.1-.017-.1-.05l1-2.15a.348.348 0 0 1-.15-.025l-.15-.075c.067-.1.083-.192.05-.275a2.98 2.98 0 0 0-.1-.225l-.1-.1c-.033-.033-.05-.067-.05-.1-.067-.3-.217-.417-.45-.35s-.383.133-.45.2c-.067-.067-.117-.1-.15-.1a.564.564 0 0 1-.4-.05c-.067-.067-.125-.075-.175-.025a.667.667 0 0 0-.125.175.892.892 0 0 0-.075.225c-.017.083-.025.108-.025.075-.2-.033-.342-.008-.425.075a4.789 4.789 0 0 0-.325.375c-.1.133-.233.317-.4.55-.167.233-.342.467-.525.7a83.34 83.34 0 0 0-.525.675 5.19 5.19 0 0 1-.4.475c-.433.5-.933 1.1-1.5 1.8s-1.175 1.408-1.825 2.125a59.494 59.494 0 0 1-2 2.1 15.304 15.304 0 0 1-2.025 1.725c-1.4.967-2.8 1.733-4.2 2.3a3.24 3.24 0 0 1-.875.1h-.825c-.267-.033-.55-.1-.85-.2-.3-.1-.483-.283-.55-.55a4.4 4.4 0 0 1-.2-1.3c0-.667.125-1.442.375-2.325.25-.883.542-1.675.875-2.375Zm1.3-3.3c0-.067.008-.15.025-.25s.025-.117.025-.05a.534.534 0 0 1 0-.325.734.734 0 0 0 .05-.275c.067-.067.125-.192.175-.375.05-.183.125-.308.225-.375.3-.4.508-.7.625-.9.117-.2.242-.392.375-.575.133-.183.317-.425.55-.725.233-.3.633-.75 1.2-1.35.267-.3.5-.525.7-.675.2-.15.483-.342.85-.575.233-.1.408-.133.525-.1.117.033.2.117.25.25.05.133.075.267.075.4s-.017.25-.05.35c-.133.2-.225.4-.275.6-.05.2-.158.433-.325.7a37.355 37.355 0 0 1-1.8 2.65 5.333 5.333 0 0 1-2.55 1.9h-.15a.348.348 0 0 0-.15.025.222.222 0 0 1-.1.025c-.067-.1-.108-.15-.125-.15s-.033.008-.05.025-.025.017-.025 0a2.07 2.07 0 0 0-.05-.225Zm15.85-3.15h.05c-.033.067-.05.067-.05 0Z"/><path d="M55.803 16.8c-.067.133-.1.225-.1.275a.17.17 0 0 1-.05.125l-3.6 6.8c-.367.8-.608 1.325-.725 1.575-.117.25-.2.417-.25.5-.05.083-.1.175-.15.275-.05.1-.192.417-.425.95l-.375.975c-.083.217-.158.417-.225.6a9.394 9.394 0 0 0-.2.625c-.067.233-.183.567-.35 1-.3.9-.6 1.975-.9 3.225-.3 1.25-.5 2.342-.6 3.275-.067.7-.125 1.292-.175 1.775-.05.483-.008 1.092.125 1.825.067.467.225.925.475 1.375.25.45.608.808 1.075 1.075.233.067.4.15.5.25.2.167.5.25.9.25s.733-.017 1-.05c1.033-.1 2.1-.517 3.2-1.25s2.15-1.567 3.15-2.5 1.892-1.875 2.675-2.825c.783-.95 1.375-1.708 1.775-2.275.133-.167.375-.458.725-.875a52.266 52.266 0 0 0 2.1-2.675c.317-.433.508-.75.575-.95a.442.442 0 0 0 .125-.2.442.442 0 0 1 .125-.2c.167-.133.283-.292.35-.475s.117-.358.15-.525l-.1-.1h-.05a.634.634 0 0 0 .075-.375.471.471 0 0 1 .025-.275c.067-.133.042-.233-.075-.3-.117-.067-.158-.167-.125-.3.133-.233.05-.383-.25-.45-.067-.267-.042-.433.075-.5.117-.067.092-.083-.075-.05-.133.033-.15.017-.05-.05.1-.067.117-.1.05-.1-.067.067-.092.025-.075-.125s.025-.242.025-.275c-.1-.1-.175-.158-.225-.175-.05-.017-.083 0-.1.05s-.033.108-.05.175a.224.224 0 0 1-.125.15.17.17 0 0 1-.05-.125c0-.05-.033-.092-.1-.125-.1.067-.183.125-.25.175a.332.332 0 0 1-.2.075c-.367.133-.608.3-.725.5-.117.2-.258.417-.425.65l-.175.175a.667.667 0 0 0-.125.175 58.773 58.773 0 0 0-2.575 3.2 87.994 87.994 0 0 1-2.1 2.725 30.08 30.08 0 0 1-2.175 2.425 20.978 20.978 0 0 1-2.7 2.25 4.845 4.845 0 0 1-.525.175c-.183.05-.367.067-.55.05a.545.545 0 0 1-.425-.25c-.1-.15-.15-.408-.15-.775-.033-.367-.042-.633-.025-.8.017-.167.075-.383.175-.65.167-.833.358-1.558.575-2.175.217-.617.458-1.325.725-2.125.267-.733.467-1.292.6-1.675.133-.383.283-.767.45-1.15.167-.383.383-.858.65-1.425.267-.567.65-1.417 1.15-2.55.167-.267.275-.442.325-.525.05-.083.083-.142.1-.175s.042-.092.075-.175c.033-.083.117-.275.25-.575.1-.2.333-.625.7-1.275a166.77 166.77 0 0 0 2.95-5.475c.167-.3.317-.433.45-.4.133.033.383.017.75-.05.733-.2 1.342-.292 1.825-.275.483.017.892-.025 1.225-.125.1-.033.325-.067.675-.1.35-.033.725-.067 1.125-.1s.792-.067 1.175-.1.658-.067.825-.1h.2a.444.444 0 0 0 .2-.05c.067-.1.275-.142.625-.125.35.017.592.008.725-.025.233-.033.45-.058.65-.075a.998.998 0 0 0 .55-.225c-.033-.1.033-.192.2-.275.167-.083.283-.125.35-.125.167-.033.217-.1.15-.2a.25.25 0 0 1 0-.3c.167-.033.267-.083.3-.15.033-.067.1-.1.2-.1 0-.133-.075-.308-.225-.525-.15-.217-.242-.375-.275-.475a.47.47 0 0 1 .275-.125c.117-.017.158-.108.125-.275l-.35-.45c-.033-.133-.1-.217-.2-.25-.067-.067-.142-.058-.225.025-.083.083-.158.075-.225-.025a.624.624 0 0 0-.275-.05.624.624 0 0 1-.275-.05.728.728 0 0 0-.45-.05.564.564 0 0 1-.4-.05 1.009 1.009 0 0 0-.55-.05c-.2.033-.417.05-.65.05-.3 0-.592.05-.875.15-.283.1-.575.117-.875.05h-.2a1.76 1.76 0 0 0-.375.075c-.183.05-.383.1-.6.15-.217.05-.425.092-.625.125s-.35.05-.45.05c-.567.067-1 .108-1.3.125-.3.017-.733.075-1.3.175-.067 0-.15.008-.25.025s-.2.025-.3.025c0-.1.033-.25.1-.45s.142-.408.225-.625c.083-.217.167-.425.25-.625.083-.2.142-.333.175-.4.033-.233.058-.458.075-.675A1.272 1.272 0 0 0 63.203 9a12.415 12.415 0 0 0-.225-.525A1.601 1.601 0 0 0 62.653 8a7.866 7.866 0 0 0-.425-.4c-.117-.1-.308-.2-.575-.3a3.91 3.91 0 0 0-.55-.125.601.601 0 0 0-.35.05c-.1.05-.2.125-.3.225-.1.1-.25.217-.45.35-.1 0-.2.067-.3.2-.067.167-.192.35-.375.55-.183.2-.275.383-.275.55.033.3-.033.583-.2.85a2.788 2.788 0 0 0-.35.8 3.377 3.377 0 0 1-.275.675 3.377 3.377 0 0 0-.275.675c-.067.167-.142.342-.225.525-.083.183-.208.275-.375.275a.888.888 0 0 0-.325.05.888.888 0 0 1-.325.05c-.4 0-.692.017-.875.05l-.825.15a46.4 46.4 0 0 0-1.575.125c-.517.05-1.208.092-2.075.125-.167 0-.358.008-.575.025a2.13 2.13 0 0 0-.675.175c-.133 0-.308.067-.525.2-.217.133-.358.267-.425.4-.133.267-.3.567-.5.9a1.47 1.47 0 0 0-.05.35l.05.05c.067.2.1.375.1.525 0 .15.067.292.2.425.1.167.208.35.325.55.117.2.258.333.425.4.233.1.45.167.65.2s.417.042.65.025c.233-.017.508-.067.825-.15.317-.083.725-.192 1.225-.325.067 0 .225-.017.475-.05.25-.033.525-.067.825-.1.3-.033.592-.075.875-.125.283-.05.475-.092.575-.125Zm10.35 9.05h.05c0-.033-.008-.05-.025-.05s-.025.017-.025.05Z"/></g></svg>