<svg viewBox="0 -45 794.527 100" xmlns="http://www.w3.org/2000/svg" class="jsx-2263963463 artboard-inner" style="width:340px;height:42.7928px;max-height:100%"><g fill="#FFF"><path d="M50.617-24.012c0-3.91.24-8.3.72-13.17-4.252.207-11.42.31-21.502.31-13.168 0-23.113-.103-29.835-.31v2.059c2.47.137 4.27.411 5.401.823 1.132.411 1.904 1.2 2.315 2.366.412 1.166.617 3.052.617 5.658v51.03c0 2.605-.205 4.492-.617 5.658-.411 1.166-1.183 1.954-2.315 2.366-1.131.411-2.932.686-5.401.823v2.057c2.88-.205 7.27-.308 13.169-.308 6.515 0 11.557.103 15.123.308v-2.057c-3.086-.137-5.315-.412-6.687-.823-1.372-.412-2.332-1.2-2.88-2.366-.55-1.166-.824-3.053-.824-5.659V1.091h7.51c2.744 0 4.887.72 6.43 2.16 1.544 1.44 2.487 3.584 2.83 6.43.343 2.846.548 4.51.617 4.99h2.366c-.411-6.242-.617-11.111-.617-14.61v-4.938c0-3.566.103-6.79.309-9.67h-2.367l-.308 2.057c-.275 2.332-.635 4.27-1.08 5.813-.446 1.543-1.32 2.88-2.624 4.012-1.303 1.132-3.155 1.698-5.555 1.698h-7.51v-25.309c0-2.606.205-4.492.617-5.658.411-1.166 1.183-1.938 2.314-2.315 1.132-.377 2.932-.566 5.402-.566h6.481c4.252 0 7.407.6 9.465 1.8 2.058 1.2 3.498 3.087 4.321 5.659.823 2.572 1.509 6.499 2.058 11.78h2.366c-.206-2.195-.309-5.007-.309-8.436ZM100.483 23.313l-2.058-.823c-1.714 3.703-3.84 6.344-6.378 7.922-2.538 1.577-5.453 2.366-8.745 2.366-2.675 0-5.23-.909-7.665-2.727-2.435-1.817-4.39-4.406-5.864-7.767-1.475-3.36-2.212-7.305-2.212-11.831 0-2.47.103-4.664.309-6.585h32.201c0-7.613-1.663-13.288-4.99-17.026-3.326-3.738-8.075-5.607-14.248-5.607-4.664 0-8.745 1.183-12.243 3.549-3.498 2.366-6.207 5.744-8.128 10.134-1.92 4.39-2.88 9.568-2.88 15.535 0 5.28.943 9.928 2.829 13.94 1.886 4.012 4.612 7.133 8.179 9.362 3.566 2.23 7.785 3.344 12.654 3.344 4.801 0 8.9-1.355 12.295-4.064 3.395-2.71 5.71-5.95 6.944-9.722ZM72.088-12.078c2.332-3.155 5.11-4.733 8.333-4.733 3.292 0 5.779 1.784 7.46 5.35 1.68 3.567 2.451 8.025 2.314 13.375H67.767c.549-6.173 1.989-10.837 4.32-13.992ZM153.642 23.313l-2.057-.823c-1.715 3.703-3.841 6.344-6.379 7.922-2.538 1.577-5.453 2.366-8.745 2.366-2.675 0-5.23-.909-7.664-2.727-2.435-1.817-4.39-4.406-5.865-7.767-1.474-3.36-2.212-7.305-2.212-11.831 0-2.47.103-4.664.31-6.585h32.2c0-7.613-1.662-13.288-4.989-17.026-3.326-3.738-8.076-5.607-14.249-5.607-4.664 0-8.745 1.183-12.243 3.549-3.498 2.366-6.207 5.744-8.127 10.134-1.92 4.39-2.881 9.568-2.881 15.535 0 5.28.943 9.928 2.83 13.94 1.885 4.012 4.612 7.133 8.178 9.362 3.567 2.23 7.785 3.344 12.655 3.344 4.8 0 8.899-1.355 12.294-4.064 3.395-2.71 5.71-5.95 6.944-9.722Zm-28.395-35.391c2.332-3.155 5.11-4.733 8.334-4.733 3.292 0 5.778 1.784 7.458 5.35 1.68 3.567 2.452 8.025 2.315 13.375h-22.428c.549-6.173 1.99-10.837 4.321-13.992ZM210.71 31.337c-1.166-1.44-1.75-3.738-1.75-6.893V-45c-2.811.96-6.378 1.44-10.699 1.44-2.058 0-4.184-.103-6.379-.308v2.16c2.881 0 4.904.72 6.07 2.16 1.166 1.441 1.75 3.739 1.75 6.894v19.959c-1.304-2.058-3.036-3.584-5.196-4.579-2.16-.994-4.544-1.491-7.15-1.491-4.253 0-8.145 1.063-11.677 3.189-3.533 2.126-6.345 5.298-8.436 9.516-2.092 4.218-3.138 9.311-3.138 15.278-.069 9.122 1.766 16.05 5.504 20.782 3.738 4.733 8.899 7.099 15.483 7.099 3.567 0 6.585-.806 9.054-2.418 2.469-1.612 4.32-3.96 5.555-7.047v9.156c2.812-.96 6.379-1.44 10.7-1.44 2.126 0 4.252.103 6.379.308v-2.16c-2.881 0-4.904-.72-6.07-2.16Zm-15.433-.411c-2.126 2.058-4.526 3.086-7.201 3.086-4.595 0-8.093-2.074-10.494-6.224-2.4-4.15-3.567-10.34-3.498-18.57-.069-8.368 1.2-14.729 3.807-19.084 2.606-4.356 6.035-6.533 10.288-6.533 5.83 0 9.67 2.64 11.522 7.922V22.18c-.823 3.772-2.297 6.687-4.424 8.745ZM267.727-11.564c-3.6-4.8-8.316-7.201-14.146-7.201-3.498 0-6.67.96-9.517 2.88-2.846 1.92-5.024 4.63-6.533 8.128v-37.14c-2.812.96-6.378 1.44-10.7 1.44-2.057 0-4.183-.103-6.378-.308v2.16c2.88 0 4.904.72 6.07 2.16 1.166 1.44 1.75 3.739 1.75 6.894v63.168c0 2.264-.24 4.253-.721 5.967l1.749.72 7.305-6.172a18.459 18.459 0 0 0 6.224 4.424 18.265 18.265 0 0 0 7.356 1.543c4.252 0 8.11-1.063 11.574-3.19 3.463-2.126 6.224-5.28 8.282-9.465 2.057-4.183 3.086-9.259 3.086-15.226 0-9.053-1.8-15.98-5.401-20.782Zm-8.025 40.072c-2.297 4.15-5.744 6.225-10.34 6.225a16.43 16.43 0 0 1-6.378-1.286 16.02 16.02 0 0 1-5.453-3.756V-2.922c1.03-4.046 2.744-7.184 5.144-9.413 2.401-2.23 5.042-3.344 7.922-3.344 4.253 0 7.408 2.058 9.465 6.173C262.12-5.391 263.15.85 263.15 9.218c0 8.71-1.15 15.14-3.447 19.29ZM286.214 33.138c2.092 2.16 5.298 3.24 9.62 3.24 3.36 0 6.378-.668 9.053-2.006 2.675-1.337 5.041-3.72 7.099-7.15 0 2.812.651 5.041 1.954 6.687 1.303 1.647 3.601 2.47 6.893 2.47 1.92 0 3.515-.292 4.784-.875 1.27-.583 2.795-1.56 4.578-2.932l-1.131-1.749c-.823.686-1.595 1.217-2.315 1.595a4.916 4.916 0 0 1-2.315.566c-1.166 0-1.989-.378-2.469-1.132-.48-.755-.72-1.99-.72-3.704v-28.6c0-3.636-.292-6.568-.875-8.797-.583-2.23-1.731-4.132-3.446-5.71-2.744-2.538-6.79-3.806-12.14-3.806-3.018 0-5.796.377-8.333 1.131-2.538.755-4.63 1.715-6.276 2.88-1.578 1.098-2.76 2.196-3.55 3.293-.788 1.097-1.183 2.47-1.183 4.115 0 1.715.48 3.172 1.44 4.373.96 1.2 2.401 1.8 4.322 1.8 1.714 0 3.12-.497 4.218-1.492 1.097-.994 1.646-2.349 1.646-4.063 0-1.646-.463-3.018-1.389-4.116-.926-1.097-2.075-1.817-3.446-2.16 1.989-2.47 5.384-3.704 10.185-3.704 3.018 0 5.367.737 7.047 2.212 1.68 1.475 2.52 4.201 2.52 8.18V.061c0 1.852-.925 3.326-2.777 4.424-1.852 1.097-4.698 2.297-8.54 3.6-3.772 1.304-6.807 2.538-9.104 3.704a18.992 18.992 0 0 0-5.967 4.733c-1.68 1.989-2.52 4.526-2.52 7.613 0 3.84 1.045 6.841 3.137 9.002Zm25.772-8.694c-3.224 5.213-7.1 7.82-11.626 7.82-2.47 0-4.458-.79-5.967-2.367-1.509-1.577-2.263-3.91-2.263-6.996 0-2.675.583-4.87 1.749-6.584 1.166-1.715 2.554-3.07 4.166-4.064 1.612-.994 3.721-2.04 6.327-3.138 2.264-1.029 3.944-1.852 5.042-2.469 1.097-.617 1.954-1.406 2.572-2.366ZM372.036-15.473c-3.36-2.195-7.338-3.292-11.934-3.292-4.664 0-8.813 1.217-12.448 3.652S341.189-9.3 339.166-4.98c-2.023 4.32-3.035 9.259-3.035 14.814 0 5.487.995 10.306 2.984 14.455 1.989 4.15 4.715 7.322 8.179 9.517 3.463 2.194 7.321 3.292 11.574 3.292 5.075 0 9.208-1.406 12.397-4.218 3.19-2.812 5.367-6.173 6.533-10.083l-1.955-.72c-1.715 3.635-3.892 6.31-6.533 8.025-2.64 1.715-5.435 2.572-8.385 2.572-4.39 0-7.956-1.938-10.7-5.813-2.743-3.875-4.114-10.065-4.114-18.57 0-6.104.72-11.025 2.16-14.763 1.44-3.738 3.258-6.413 5.453-8.025 2.194-1.612 4.56-2.418 7.098-2.418 1.99 0 3.858.412 5.607 1.235 1.75.823 2.967 1.852 3.653 3.086a6.006 6.006 0 0 0-3.087 2.007c-.823.994-1.234 2.212-1.234 3.652 0 1.577.548 2.83 1.646 3.755 1.097.926 2.435 1.389 4.012 1.389 1.578 0 2.88-.515 3.91-1.543 1.028-1.03 1.543-2.435 1.543-4.218 0-3.155-1.612-5.796-4.836-7.922ZM434.66 31.955c-1.028-.823-2.194-2.092-3.497-3.807L412.54 2.737l12.552-13.17c2.812-2.948 5.898-4.56 9.26-4.834v-2.058c-2.744.273-5.728.41-8.951.411-2.95 0-6.825-.137-11.626-.411v2.058c2.263 0 4.098.291 5.504.874 1.406.583 2.11 1.457 2.11 2.623 0 1.51-1.098 3.396-3.293 5.659l-7.613 7.922c-1.235 1.234-2.52 2.177-3.858 2.829-1.338.651-3 1.114-4.99 1.389V-45c-2.812.96-6.379 1.44-10.7 1.44-2.057 0-4.183-.103-6.378-.308v2.16c2.88 0 4.904.72 6.07 2.16 1.166 1.441 1.749 3.739 1.749 6.894V26.09c0 2.812-.583 4.75-1.75 5.812-1.165 1.063-3.188 1.595-6.07 1.595v2.16c6.31-.274 10.46-.411 12.45-.411 1.851 0 5.658.137 11.42.411v-2.16c-2.539 0-4.305-.532-5.3-1.595-.994-1.063-1.49-3-1.49-5.812V8.189c1.85.137 3.308.498 4.372 1.08 1.063.584 2.177 1.732 3.343 3.447L421.183 30c.412.48.618.995.618 1.543 0 .549-.292 1.012-.875 1.39-.583.376-1.354.565-2.315.565v2.16c5.762-.274 9.568-.411 11.42-.411 1.44 0 4.218.137 8.333.411v-2.16c-1.44-.206-2.674-.72-3.703-1.543ZM558.982-37.181c-2.058.206-4.63.309-7.716.309-3.978 0-7.922-.103-11.831-.31v2.059c3.086.068 5.315.565 6.687 1.491 1.372.926 2.058 2.52 2.058 4.784 0 2.195-.55 4.973-1.647 8.334L533.88 19.3 519.064-26.48c-.686-2.058-1.028-3.704-1.028-4.939 0-1.44.514-2.383 1.543-2.829 1.029-.443 2.846-.734 5.452-.874v-2.058c-2.88.206-7.27.309-13.168.309-4.184 0-7.51-.103-9.98-.31v2.059c2.675.137 4.699 2.332 6.07 6.584l2.778 8.127-12.551 39.815-15.021-45.884c-.754-2.264-1.132-3.944-1.132-5.042 0-1.166.378-2.023 1.132-2.572.754-.545 2.058-.888 3.91-1.028v-2.058c-2.47.206-6.173.309-11.112.309-4.526 0-8.196-.103-11.008-.31v2.059c3.292.137 5.659 2.332 7.099 6.584l21.81 64.712H495.506l16.358-52.984 17.9 52.984H531.41l19.444-62.346c1.577-5.075 4.286-8.059 8.128-8.95ZM576.749-41.09c-1.303-1.304-2.846-1.955-4.63-1.955-1.783 0-3.326.651-4.63 1.954-1.302 1.304-1.954 2.847-1.954 4.63s.652 3.327 1.955 4.63 2.846 1.954 4.63 1.954c1.783 0 3.326-.651 4.629-1.954 1.303-1.303 1.955-2.847 1.955-4.63s-.652-3.326-1.955-4.63Zm.72 67.18v-44.547c-2.812.96-6.378 1.44-10.7 1.44-2.057 0-4.183-.102-6.378-.308v2.16c2.88 0 4.904.72 6.07 2.16 1.166 1.441 1.749 3.739 1.749 6.894V26.09c0 2.812-.583 4.75-1.75 5.812-1.165 1.063-3.188 1.595-6.07 1.595v2.16c6.311-.274 10.46-.411 12.45-.411 1.989 0 6.138.137 12.448.411v-2.16c-2.88 0-4.904-.532-6.07-1.595-1.166-1.063-1.749-3-1.749-5.812ZM640.195 31.337c-1.166-1.44-1.75-3.738-1.75-6.893V-45c-2.811.96-6.378 1.44-10.699 1.44-2.057 0-4.183-.103-6.378-.308v2.16c2.88 0 4.904.72 6.07 2.16 1.166 1.441 1.749 3.739 1.749 6.894v19.959c-1.303-2.058-3.035-3.584-5.196-4.579-2.16-.994-4.544-1.491-7.15-1.491-4.252 0-8.145 1.063-11.677 3.189-3.532 2.126-6.344 5.298-8.436 9.516-2.092 4.218-3.138 9.311-3.138 15.278-.069 9.122 1.766 16.05 5.504 20.782 3.738 4.733 8.9 7.099 15.484 7.099 3.566 0 6.584-.806 9.053-2.418 2.47-1.612 4.321-3.96 5.556-7.047v9.156c2.812-.96 6.378-1.44 10.7-1.44 2.125 0 4.252.103 6.378.308v-2.16c-2.88 0-4.904-.72-6.07-2.16Zm-15.432-.411c-2.126 2.058-4.527 3.086-7.202 3.086-4.595 0-8.093-2.074-10.494-6.224-2.4-4.15-3.566-10.34-3.498-18.57-.068-8.368 1.2-14.729 3.807-19.084 2.606-4.356 6.036-6.533 10.288-6.533 5.83 0 9.67 2.64 11.523 7.922V22.18c-.823 3.772-2.298 6.687-4.424 8.745ZM694.846-9.3c.857.823 1.903 1.234 3.138 1.234 1.303 0 2.486-.48 3.55-1.44 1.062-.96 1.594-2.4 1.594-4.321 0-1.92-.549-3.395-1.646-4.424-1.098-1.029-2.538-1.543-4.321-1.543-1.99 0-3.978.6-5.967 1.8a16.186 16.186 0 0 0-4.939 4.578c-3.086-3.566-7.853-5.35-14.3-5.35-5.418 0-9.774 1.355-13.066 4.064-3.292 2.71-4.938 6.773-4.938 12.192 0 4.87 1.354 8.642 4.064 11.317 2.709 2.674 6.327 4.252 10.854 4.732-3.567 1.852-6.122 3.738-7.665 5.659-1.543 1.92-2.315 3.943-2.315 6.07 0 3.086 1.218 5.144 3.652 6.172 2.435 1.03 5.676 1.544 9.723 1.544h7.613c4.458 0 7.562.685 9.31 2.057 1.75 1.372 2.624 3.292 2.624 5.761 0 4.253-1.886 7.39-5.658 9.414-3.773 2.023-8.3 3.035-13.58 3.035-4.802 0-8.626-.84-11.472-2.52-2.846-1.68-4.27-4.099-4.27-7.254 0-1.783.446-3.395 1.338-4.835.892-1.44 2.092-2.4 3.6-2.88l-.616-1.647c-3.361.96-5.985 2.298-7.87 4.013-1.887 1.714-2.83 3.738-2.83 6.07 0 3.566 2.006 6.258 6.018 8.076 4.013 1.817 9.003 2.726 14.97 2.726 5.83 0 10.802-.857 14.917-2.572 4.116-1.715 7.236-3.978 9.362-6.79 2.127-2.812 3.19-5.864 3.19-9.157 0-4.046-1.526-7.081-4.578-9.104-3.053-2.024-6.91-3.035-11.575-3.035h-12.86c-3.292 0-4.938-1.098-4.938-3.293 0-1.371.583-2.606 1.75-3.703 1.165-1.098 2.88-2.298 5.143-3.601h.103c5.418 0 9.774-1.355 13.066-4.064 3.292-2.71 4.938-6.773 4.938-12.191 0-3.704-.789-6.756-2.366-9.157.823-1.371 1.749-2.52 2.778-3.446 1.028-.926 2.434-1.766 4.218-2.52-.686 1.783-1.029 3.36-1.029 4.732 0 1.577.429 2.778 1.286 3.6ZM678.179 8.652c-1.406 2.16-3.48 3.241-6.224 3.241-2.743 0-4.818-1.08-6.224-3.24-1.406-2.161-2.11-5.882-2.11-11.163 0-5.281.704-9.002 2.11-11.163 1.406-2.16 3.48-3.24 6.224-3.24s4.818 1.08 6.224 3.24c1.406 2.16 2.11 5.882 2.11 11.163 0 5.28-.704 9.002-2.11 11.162ZM751.553 23.313l-2.057-.823c-1.715 3.703-3.841 6.344-6.379 7.922-2.538 1.577-5.453 2.366-8.745 2.366-2.675 0-5.23-.909-7.664-2.727-2.435-1.817-4.39-4.406-5.865-7.767-1.474-3.36-2.212-7.305-2.212-11.831 0-2.47.103-4.664.309-6.585h32.202c0-7.613-1.664-13.288-4.99-17.026-3.326-3.738-8.076-5.607-14.249-5.607-4.664 0-8.745 1.183-12.243 3.549-3.498 2.366-6.207 5.744-8.127 10.134-1.92 4.39-2.881 9.568-2.881 15.535 0 5.28.943 9.928 2.83 13.94 1.885 4.012 4.612 7.133 8.178 9.362 3.567 2.23 7.785 3.344 12.655 3.344 4.8 0 8.899-1.355 12.294-4.064 3.395-2.71 5.71-5.95 6.944-9.722Zm-28.395-35.391c2.332-3.155 5.11-4.733 8.333-4.733 3.293 0 5.779 1.784 7.46 5.35 1.68 3.567 2.451 8.025 2.314 13.375h-22.428c.549-6.173 1.99-10.837 4.321-13.992ZM776.626-17.222v-17.181c-2.332.823-5.418 1.303-9.26 1.44v15.74h-9.876v2.058h9.877V19.3c0 3.704.291 6.653.874 8.848.583 2.195 1.63 4.047 3.138 5.556a10.875 10.875 0 0 0 4.013 2.572c1.508.548 3.429.823 5.76.823 7.202 0 11.66-4.733 13.375-14.198l-2.057-.514c-1.03 3.91-2.298 6.721-3.807 8.436-1.509 1.715-3.326 2.572-5.453 2.572-2.126 0-3.755-.686-4.886-2.058-1.132-1.371-1.698-3.6-1.698-6.687v-39.815h15.226v-2.057Z"/></g></svg>